0
SECTION
2
HEADER
9
$INSUNITS
70
4
9
$ACADVER
1
AC1014
9
$HANDSEED
5
FFFF
0
ENDSEC
0
SECTION
2
TABLES
0
TABLE
2
VPORT
5
8
100
AcDbSymbolTable
0
ENDTAB
0
TABLE
2
LTYPE
5
5
100
AcDbSymbolTable
0
LTYPE
5
14
100
AcDbSymbolTableRecord
100
AcDbLinetypeTableRecord
2
BYBLOCK
70
0
0
LTYPE
5
15
100
AcDbSymbolTableRecord
100
AcDbLinetypeTableRecord
2
BYLAYER
70
0
0
ENDTAB
0
TABLE
2
LAYER
5
2
100
AcDbSymbolTable
70
2
0
LAYER
5
50
100
AcDbSymbolTableRecord
100
AcDbLayerTableRecord
2
0
70
0
6
CONTINUOUS
0
ENDTAB
0
TABLE
2
STYLE
5
3
100
AcDbSymbolTable
70
1
0
STYLE
5
11
100
AcDbSymbolTableRecord
100
AcDbTextStyleTableRecord
2
STANDARD
70
0
0
ENDTAB
0
TABLE
2
VIEW
5
6
100
AcDbSymbolTable
70
0
0
ENDTAB
0
TABLE
2
UCS
5
7
100
AcDbSymbolTable
70
0
0
ENDTAB
0
TABLE
2
APPID
5
9
100
AcDbSymbolTable
70
2
0
APPID
5
12
100
AcDbSymbolTableRecord
100
AcDbRegAppTableRecord
2
ACAD
70
0
0
ENDTAB
0
TABLE
2
DIMSTYLE
5
A
100
AcDbSymbolTable
70
1
0
ENDTAB
0
TABLE
2
BLOCK_RECORD
5
1
100
AcDbSymbolTable
70
1
0
BLOCK_RECORD
5
1F
100
AcDbSymbolTableRecord
100
AcDbBlockTableRecord
2
*MODEL_SPACE
0
BLOCK_RECORD
5
1B
100
AcDbSymbolTableRecord
100
AcDbBlockTableRecord
2
*PAPER_SPACE
0
ENDTAB
0
ENDSEC
0
SECTION
2
BLOCKS
0
BLOCK
5
20
100
AcDbEntity
100
AcDbBlockBegin
2
*MODEL_SPACE
0
ENDBLK
5
21
100
AcDbEntity
100
AcDbBlockEnd
0
BLOCK
5
1C
100
AcDbEntity
100
AcDbBlockBegin
2
*PAPER_SPACE
0
ENDBLK
5
1D
100
AcDbEntity
100
AcDbBlockEnd
0
ENDSEC
0
SECTION
2
ENTITIES
0
LWPOLYLINE
5
100
100
AcDbEntity
8
0
100
AcDbPolyline
90
8
70
1
43
0.0
10
44.000000000000014
20
50
10
-52
20
50
42
0.41421356237309548
10
-75
20
26.999999999999986
10
-52.000000000000014
20
3.9999999999999991
42
-0.4142135623730952
10
44
20
3.9999999999999947
10
67
20
26.999999999999993
42
-0.4142135623730952
10
67.000000999999997
20
27
10
67
20
27
42
0.41421356237309515
0
LWPOLYLINE
5
101
100
AcDbEntity
8
0
100
AcDbPolyline
90
4
70
1
43
0.0
10
-20.512879678165312
20
43.40000000000002
10
12.287120321834699
20
43.40000000000002
10
12.287120321834699
20
10.600000000000023
10
-20.512879678165312
20
10.600000000000023
0
LWPOLYLINE
5
102
100
AcDbEntity
8
0
100
AcDbPolyline
90
24
70
1
43
0.0
10
39.750000000000014
20
45.500000000000007
10
48.250000000000014
20
45.500000000000007
42
-0.41421356237309298
10
50.750000000000014
20
43.000000000000007
10
50.750000000000014
20
35.250000000000007
42
0.4142135623730907
10
52.250000000000014
20
33.750000000000007
10
60.000000000000014
20
33.750000000000007
42
-0.41421356237309342
10
62.500000000000007
20
31.250000000000007
10
62.500000000000007
20
22.750000000000014
42
-0.41421356237309342
10
60.000000000000014
20
20.250000000000018
10
52.250000000000014
20
20.250000000000014
42
0.41421356237309026
10
50.750000000000014
20
18.750000000000014
10
50.750000000000014
20
11.000000000000014
42
-0.41421356237309342
10
48.250000000000014
20
8.5000000000000142
10
39.750000000000014
20
8.5000000000000124
42
-0.41421356237309526
10
37.250000000000014
20
11.000000000000014
10
37.250000000000014
20
18.750000000000014
42
0.41421356237309809
10
35.750000000000014
20
20.250000000000014
10
28.000000000000014
20
20.250000000000014
42
-0.41421356237309509
10
25.500000000000014
20
22.750000000000014
10
25.500000000000014
20
31.250000000000007
42
-0.41421356237309509
10
28.000000000000014
20
33.750000000000007
10
35.750000000000014
20
33.750000000000007
42
0.41421356237309936
10
37.250000000000014
20
35.25
10
37.250000000000021
20
43.000000000000007
42
-0.41421356237309448
0
LWPOLYLINE
5
103
100
AcDbEntity
8
0
100
AcDbPolyline
90
4
70
1
43
0.0
10
-57.500000000000014
20
29.499999999999979
10
-46.500000000000021
20
29.499999999999979
10
-46.500000000000021
20
24.50000000000006
10
-57.500000000000014
20
24.50000000000006
0
ARC
5
104
100
AcDbEntity
8
0
100
AcDbCircle
10
-52.000000000000021
20
27.000000000000021
30
0
40
9
210
0
220
-0
230
1
100
AcDbArc
50
21.749883907315674
51
158.25011609268432
0
ARC
5
105
100
AcDbEntity
8
0
100
AcDbCircle
10
-52.000000000000021
20
27.000000000000021
30
0
40
8.9999999999999964
210
0
220
0
230
1
100
AcDbArc
50
201.74988390731622
51
338.2501160926837
0
ARC
5
106
100
AcDbEntity
8
0
100
AcDbCircle
10
-52.000000000000021
20
27.000000000000021
30
0
40
10.999999999999996
210
0
220
-0
230
1
100
AcDbArc
50
17.648811123523636
51
162.35118887647636
0
ARC
5
107
100
AcDbEntity
8
0
100
AcDbCircle
10
-52.000000000000021
20
27.000000000000021
30
0
40
10.999999999999995
210
0
220
0
230
1
100
AcDbArc
50
197.6488111235241
51
342.35118887647593
0
ARC
5
108
100
AcDbEntity
8
0
100
AcDbCircle
10
-52.000000000000021
20
27.000000000000021
30
0
40
12.999999999999993
210
0
220
-0
230
1
100
AcDbArc
50
14.864765363762839
51
165.13523463623719
0
ARC
5
109
100
AcDbEntity
8
0
100
AcDbCircle
10
-52.000000000000021
20
27.000000000000021
30
0
40
12.999999999999996
210
0
220
0
230
1
100
AcDbArc
50
194.86476536376321
51
345.13523463623682
0
ARC
5
110
100
AcDbEntity
8
0
100
AcDbCircle
10
-52.000000000000021
20
27.000000000000021
30
0
40
14.999999999999996
210
0
220
-0
230
1
100
AcDbArc
50
12.846117951780506
51
167.15388204821949
0
ARC
5
111
100
AcDbEntity
8
0
100
AcDbCircle
10
-52.000000000000021
20
27.000000000000021
30
0
40
14.999999999999996
210
0
220
0
230
1
100
AcDbArc
50
192.84611795178085
51
347.15388204821915
0
ARC
5
112
100
AcDbEntity
8
0
100
AcDbCircle
10
-52.000000000000021
20
27.000000000000021
30
0
40
16.999999999999993
210
0
220
-0
230
1
100
AcDbArc
50
11.313457923788688
51
168.68654207621131
0
ARC
5
113
100
AcDbEntity
8
0
100
AcDbCircle
10
-52.000000000000021
20
27.000000000000021
30
0
40
16.999999999999993
210
0
220
0
230
1
100
AcDbArc
50
191.31345792378897
51
348.68654207621103
0
ARC
5
114
100
AcDbEntity
8
0
100
AcDbCircle
10
-52.000000000000021
20
27.000000000000021
30
0
40
18.999999999999989
210
0
220
-0
230
1
100
AcDbArc
50
10.109287880793133
51
169.89071211920691
0
ARC
5
115
100
AcDbEntity
8
0
100
AcDbCircle
10
-52.000000000000021
20
27.000000000000021
30
0
40
18.999999999999986
210
0
220
0
230
1
100
AcDbArc
50
190.10928788079337
51
349.89071211920668
0
LINE
5
116
100
AcDbEntity
8
0
100
AcDbLine
10
-60.359292733240089
20
30.33499999999998
30
0
11
-70.705020048104757
21
30.334999999999972
31
0
0
LINE
5
117
100
AcDbEntity
8
0
100
AcDbLine
10
-70.705020048104728
20
23.664999999999981
30
0
11
-60.359292733240054
21
23.664999999999981
31
0
0
LINE
5
118
100
AcDbEntity
8
0
100
AcDbLine
10
-43.640707266759982
20
23.664999999999981
30
0
11
-41.517739986052661
21
23.664999999999981
31
0
0
LINE
5
119
100
AcDbEntity
8
0
100
AcDbLine
10
-39.435057700092727
20
23.664999999999981
30
0
11
-37.375439322837792
21
23.664999999999981
31
0
0
LINE
5
120
100
AcDbEntity
8
0
100
AcDbLine
10
-35.330333686603119
20
23.664999999999981
30
0
11
-33.2949799518953
21
23.664999999999981
31
0
0
LINE
5
121
100
AcDbEntity
8
0
100
AcDbLine
10
-41.517739986052639
20
30.33499999999998
30
0
11
-43.640707266759946
21
30.33499999999998
31
0
0
LINE
5
122
100
AcDbEntity
8
0
100
AcDbLine
10
-33.294979951895286
20
30.33499999999998
30
0
11
-35.330333686603097
21
30.33499999999998
31
0
0
LINE
5
123
100
AcDbEntity
8
0
100
AcDbLine
10
-37.375439322837778
20
30.33499999999998
30
0
11
-39.435057700092706
21
30.33499999999998
31
0
0
SPLINE
5
124
100
AcDbEntity
8
0
100
AcDbSpline
70
0
71
2
72
6
73
3
74
0
42
0.000000001
43
0.0000000001
44
0.0000000001
40
0
40
0
40
0
40
1
40
1
40
1
10
-70.000001043081284
20
26.948158517479897
30
0
10
-70.000001043081284
20
27.944066002964973
30
0
10
-69.465212486684322
20
28.50613959133625
30
0
0
SPLINE
5
125
100
AcDbEntity
8
0
100
AcDbSpline
70
0
71
2
72
6
73
3
74
0
42
0.000000001
43
0.0000000001
44
0.0000000001
40
0
40
0
40
0
40
1
40
1
40
1
10
-69.465212486684322
20
28.50613959133625
30
0
10
-68.93042404204607
20
29.070941880345345
30
0
10
-68.084584958851337
20
29.070941880345345
30
0
0
SPLINE
5
126
100
AcDbEntity
8
0
100
AcDbSpline
70
0
71
2
72
6
73
3
74
0
42
0.000000001
43
0.0000000001
44
0.0000000001
40
0
40
0
40
0
40
1
40
1
40
1
10
-68.084584958851337
20
29.070941880345345
30
0
10
-67.530697025358677
20
29.070941880345345
30
0
10
-67.085949219763279
20
28.806276097893715
30
0
0
SPLINE
5
127
100
AcDbEntity
8
0
100
AcDbSpline
70
0
71
2
72
6
73
3
74
0
42
0.000000001
43
0.0000000001
44
0.0000000001
40
0
40
0
40
0
40
1
40
1
40
1
10
-67.085949219763279
20
28.806276097893715
30
0
10
-66.641201712191105
20
28.541610315442085
30
0
10
-66.409277953207493
20
28.066848888993263
30
0
0
SPLINE
5
128
100
AcDbEntity
8
0
100
AcDbSpline
70
0
71
2
72
6
73
3
74
0
42
0.000000001
43
0.0000000001
44
0.0000000001
40
0
40
0
40
0
40
1
40
1
40
1
10
-66.409277953207493
20
28.066848888993263
30
0
10
-66.174626089632511
20
27.594816163182259
30
0
10
-66.174626089632511
20
26.994543448090553
30
0
0
SPLINE
5
129
100
AcDbEntity
8
0
100
AcDbSpline
70
0
71
2
72
6
73
3
74
0
42
0.000000001
43
0.0000000001
44
0.0000000001
40
0
40
0
40
0
40
1
40
1
40
1
10
-66.174626089632511
20
26.994543448090553
30
0
10
-66.174626089632511
20
26.38608492910862
30
0
10
-66.420192159712315
20
25.905866697430611
30
0
0
SPLINE
5
130
100
AcDbEntity
8
0
100
AcDbSpline
70
0
71
2
72
6
73
3
74
0
42
0.000000001
43
0.0000000001
44
0.0000000001
40
0
40
0
40
0
40
1
40
1
40
1
10
-66.420192159712315
20
25.905866697430611
30
0
10
-66.665758229792118
20
25.425648465752602
30
0
10
-67.115962840616703
20
25.177353695034981
30
0
0
SPLINE
5
131
100
AcDbEntity
8
0
100
AcDbSpline
70
0
71
2
72
6
73
3
74
0
42
0.000000001
43
0.0000000001
44
0.0000000001
40
0
40
0
40
0
40
1
40
1
40
1
10
-67.115962840616703
20
25.177353695034981
30
0
10
-67.566167451441288
20
24.931787624955177
30
0
10
-68.087313510477543
20
24.931787624955177
30
0
0
SPLINE
5
132
100
AcDbEntity
8
0
100
AcDbSpline
70
0
71
2
72
6
73
3
74
0
42
0.000000001
43
0.0000000001
44
0.0000000001
40
0
40
0
40
0
40
1
40
1
40
1
10
-68.087313510477543
20
24.931787624955177
30
0
10
-68.652115650475025
20
24.931787624955177
30
0
10
-69.096863232553005
20
25.204638913273811
30
0
0
SPLINE
5
133
100
AcDbEntity
8
0
100
AcDbSpline
70
0
71
2
72
6
73
3
74
0
42
0.000000001
43
0.0000000001
44
0.0000000001
40
0
40
0
40
0
40
1
40
1
40
1
10
-69.096863232553005
20
25.204638913273811
30
0
10
-69.541610889136791
20
25.477490201592445
30
0
10
-69.770805947482586
20
25.94952292740345
30
0
0
SPLINE
5
134
100
AcDbEntity
8
0
100
AcDbSpline
70
0
71
2
72
6
73
3
74
0
42
0.000000001
43
0.0000000001
44
0.0000000001
40
0
40
0
40
0
40
1
40
1
40
1
10
-69.770805947482586
20
25.94952292740345
30
0
10
-70.000001043081284
20
26.421555653214455
30
0
10
-70.000001043081284
20
26.948158517479897
30
0
0
SPLINE
5
135
100
AcDbEntity
8
0
100
AcDbSpline
70
0
71
2
72
6
73
3
74
0
42
0.000000001
43
0.0000000001
44
0.0000000001
40
0
40
0
40
0
40
1
40
1
40
1
10
-69.454298429191113
20
26.939973011612892
30
0
10
-69.454298429191113
20
26.216917112469673
30
0
10
-69.066849611699581
20
25.79945482313633
30
0
0
SPLINE
5
136
100
AcDbEntity
8
0
100
AcDbSpline
70
0
71
2
72
6
73
3
74
0
42
0.000000001
43
0.0000000001
44
0.0000000001
40
0
40
0
40
0
40
1
40
1
40
1
10
-69.066849611699581
20
25.79945482313633
30
0
10
-68.67667231708765
20
25.384720638394356
30
0
10
-68.090042062103748
20
25.384720638394356
30
0
0
SPLINE
5
137
100
AcDbEntity
8
0
100
AcDbSpline
70
0
71
2
72
6
73
3
74
0
42
0.000000001
43
0.0000000001
44
0.0000000001
40
0
40
0
40
0
40
1
40
1
40
1
10
-68.090042062103748
20
25.384720638394356
30
0
10
-67.492497600615025
20
25.384720638394356
30
0
10
-67.107777334749699
20
25.804911628365517
30
0
0
SPLINE
5
138
100
AcDbEntity
8
0
100
AcDbSpline
70
0
71
2
72
6
73
3
74
0
42
0.000000001
43
0.0000000001
44
0.0000000001
40
0
40
0
40
0
40
1
40
1
40
1
10
-67.107777334749699
20
25.804911628365517
30
0
10
-66.720328666269779
20
26.225102618336678
30
0
10
-66.720328666269779
20
26.997271552681923
30
0
0
SPLINE
5
139
100
AcDbEntity
8
0
100
AcDbSpline
70
0
71
2
72
6
73
3
74
0
42
0.000000001
43
0.0000000001
44
0.0000000001
40
0
40
0
40
0
40
1
40
1
40
1
10
-66.720328666269779
20
26.997271552681923
30
0
10
-66.720328666269779
20
27.48567558825016
30
0
10
-66.886767782270908
20
27.84856803715229
30
0
0
SPLINE
5
140
100
AcDbEntity
8
0
100
AcDbSpline
70
0
71
2
72
6
73
3
74
0
42
0.000000001
43
0.0000000001
44
0.0000000001
40
0
40
0
40
0
40
1
40
1
40
1
10
-66.886767782270908
20
27.84856803715229
30
0
10
-67.050478495657444
20
28.21418859064579
30
0
10
-67.369714714586735
20
28.413370028138161
30
0
0
SPLINE
5
141
100
AcDbEntity
8
0
100
AcDbSpline
70
0
71
2
72
6
73
3
74
0
42
0.000000001
43
0.0000000001
44
0.0000000001
40
0
40
0
40
0
40
1
40
1
40
1
10
-67.369714714586735
20
28.413370028138161
30
0
10
-67.686222232878208
20
28.615280166268349
30
0
10
-68.081856556236744
20
28.615280166268349
30
0
0
SPLINE
5
142
100
AcDbEntity
8
0
100
AcDbSpline
70
0
71
2
72
6
73
3
74
0
42
0.000000001
43
0.0000000001
44
0.0000000001
40
0
40
0
40
0
40
1
40
1
40
1
10
-68.081856556236744
20
28.615280166268349
30
0
10
-68.643930144608021
20
28.615280166268349
30
0
10
-69.050478525459766
20
28.227831199765205
30
0
0
SPLINE
5
143
100
AcDbEntity
8
0
100
AcDbSpline
70
0
71
2
72
6
73
3
74
0
42
0.000000001
43
0.0000000001
44
0.0000000001
40
0
40
0
40
0
40
1
40
1
40
1
10
-69.050478525459766
20
28.227831199765205
30
0
10
-69.454298429191113
20
27.843110933899879
30
0
10
-69.454298429191113
20
26.939973011612892
30
0
0
LWPOLYLINE
5
144
100
AcDbEntity
8
0
100
AcDbPolyline
90
10
70
1
43
0.0
10
-65.465212501585484
20
29.000000432133675
10
-65.465212501585484
20
25.00000037252903
10
-64.935880638659
20
25.00000037252903
10
-64.935880638659
20
26.817189827561378
10
-63.058663941919804
20
26.817189827561378
10
-63.058663941919804
20
27.289222851395607
10
-64.935880638659
20
27.289222851395607
10
-64.935880638659
20
28.52796770632267
10
-62.766713239252567
20
28.52796770632267
10
-62.766713239252567
20
29.000000432133675
0
LWPOLYLINE
5
145
100
AcDbEntity
8
0
100
AcDbPolyline
90
10
70
1
43
0.0
10
-62.051843143999577
20
29.000000432133675
10
-62.051843143999577
20
25.00000037252903
10
-61.522511579096317
20
25.00000037252903
10
-61.522511579096317
20
26.817189827561378
10
-59.645295478403568
20
26.817189827561378
10
-59.645295478403568
20
27.289222851395607
10
-61.522511579096317
20
27.289222851395607
10
-61.522511579096317
20
28.52796770632267
10
-59.353344775736332
20
28.52796770632267
10
-59.353344775736332
20
29.000000432133675
0
SPLINE
5
146
100
AcDbEntity
8
0
100
AcDbSpline
70
0
71
3
72
8
73
4
74
0
42
0.000000001
43
0.0000000001
44
0.0000000001
40
291.35313792654733
40
291.35313792654733
40
291.35313792654733
40
291.35313792654733
40
292.35313792654733
40
292.35313792654733
40
292.35313792654733
40
292.35313792654733
10
-34.900851991090491
20
28.526586151428383
30
0
10
-34.959637776712555
20
28.554417485038254
30
0
10
-35.029947473908265
20
28.532773088516219
30
0
10
-35.062483251693884
20
28.476438357842248
30
0
0
LINE
5
147
100
AcDbEntity
8
0
100
AcDbLine
10
-34.102855706162252
20
28.983055602465875
30
0
11
-34.133177627865614
21
28.61405323326445
31
0
0
SPLINE
5
148
100
AcDbEntity
8
0
100
AcDbSpline
70
0
71
3
72
8
73
4
74
0
42
0.000000001
43
0.0000000001
44
0.0000000001
40
138.92700000000011
40
138.92700000000011
40
138.92700000000011
40
138.92700000000011
40
139.92700000000011
40
139.92700000000011
40
139.92700000000011
40
139.92700000000011
10
-40.251034499524977
20
27.79901816312946
30
0
10
-40.251034499524977
20
27.593939976903368
30
0
10
-40.343799022701958
20
27.417108222303632
30
0
10
-40.529328069054912
20
27.268463599612474
30
0
0
LINE
5
149
100
AcDbEntity
8
0
100
AcDbLine
10
-40.929640688568213
20
28.256298043625559
30
0
11
-41.325090731327883
21
28.256298043625559
31
0
0
LINE
5
150
100
AcDbEntity
8
0
100
AcDbLine
10
-41.442266971129897
20
26.156969480126531
30
0
11
-41.448770173372758
21
26.156969480126531
31
0
0
SPLINE
5
151
100
AcDbEntity
8
0
100
AcDbSpline
70
0
71
3
72
8
73
4
74
0
42
0.000000001
43
0.0000000001
44
0.0000000001
40
135.70400000000001
40
135.70400000000001
40
135.70400000000001
40
135.70400000000001
40
136.70400000000001
40
136.70400000000001
40
136.70400000000001
40
136.70400000000001
10
-40.337295820458834
20
28.15703031820658
30
0
10
-40.279775095454433
20
28.04090170672902
30
0
10
-40.251034499524977
20
27.936237707108308
30
0
10
-40.251034499524977
20
27.84295925305512
30
0
0
LINE
5
152
100
AcDbEntity
8
0
100
AcDbLine
10
-35.384895810300122
20
27.688720690441158
30
0
11
-35.078000010844633
21
27.476506771663001
31
0
0
SPLINE
5
153
100
AcDbEntity
8
0
100
AcDbSpline
70
0
71
3
72
8
73
4
74
0
42
0.000000001
43
0.0000000001
44
0.0000000001
40
64.722999999999985
40
64.722999999999985
40
64.722999999999985
40
64.722999999999985
40
65.722999999999985
40
65.722999999999985
40
65.722999999999985
40
65.722999999999985
10
-40.51630189799765
20
27.675299187940666
30
0
10
-40.500034009104468
20
27.716532257479262
30
0
10
-40.491890181371872
20
27.765889388178561
30
0
10
-40.491890181371872
20
27.82342987975499
30
0
0
SPLINE
5
154
100
AcDbEntity
8
0
100
AcDbSpline
70
0
71
3
72
8
73
4
74
0
42
0.000000001
43
0.0000000001
44
0.0000000001
40
5.5640000000000072
40
5.5640000000000072
40
5.5640000000000072
40
5.5640000000000072
40
6.5640000000000081
40
6.5640000000000081
40
6.5640000000000081
40
6.5640000000000081
10
-42.078548975850083
20
27.325434813910618
30
0
10
-42.078548975850083
20
27.66065611127955
30
0
10
-42.232095708438415
20
27.926476973772353
30
0
10
-42.539090340753745
20
28.122857868244843
30
0
0
SPLINE
5
155
100
AcDbEntity
8
0
100
AcDbSpline
70
0
71
3
72
8
73
4
74
0
42
0.000000001
43
0.0000000001
44
0.0000000001
40
251.73707823723208
40
251.73707823723208
40
251.73707823723208
40
251.73707823723208
40
252.73707823723208
40
252.73707823723208
40
252.73707823723208
40
252.73707823723208
10
-33.978365834658398
20
29.092957743710819
30
0
10
-34.043397857086333
20
29.092957743710819
30
0
10
-34.097558264821473
20
29.047889959171393
30
0
10
-34.102855706162252
20
28.983055602465875
30
0
0
LINE
5
156
100
AcDbEntity
8
0
100
AcDbLine
10
-30.465055297811908
20
28.503593674684407
30
0
11
-30.434140378943756
21
28.497090472441663
31
0
0
LWPOLYLINE
5
157
100
AcDbEntity
8
0
100
AcDbPolyline
90
5
70
1
43
0.0
10
-28.644059836987594
20
27.318854522036233
10
-28.386936266247524
20
28.015388992033898
10
-28.380433064005398
20
28.015388992033898
10
-28.118427149939929
20
27.325357724278852
10
-28.118427149939929
20
27.318854522036233
0
LINE
5
158
100
AcDbEntity
8
0
100
AcDbLine
10
-36.711507558013935
20
26.371776773172879
30
0
11
-37.992262834960144
21
28.007322253933069
31
0
0
SPLINE
5
159
100
AcDbEntity
8
0
100
AcDbSpline
70
0
71
3
72
8
73
4
74
0
42
0.000000001
43
0.0000000001
44
0.0000000001
40
524.86510039116411
40
524.86510039116411
40
524.86510039116411
40
524.86510039116411
40
525.86510039116411
40
525.86510039116411
40
525.86510039116411
40
525.86510039116411
10
-39.971147744278561
20
28.37997550901326
30
0
10
-39.959228501262551
20
28.458093002214518
30
0
10
-39.920169754661799
20
28.497151748815391
30
0
10
-39.853971504476796
20
28.497151748815391
30
0
0
SPLINE
5
160
100
AcDbEntity
8
0
100
AcDbSpline
70
0
71
3
72
8
73
4
74
0
42
0.000000001
43
0.0000000001
44
0.0000000001
40
1
40
1
40
1
40
1
40
2
40
2
40
2
40
2
10
-43.541571814742298
20
26.562207929423508
30
0
10
-43.377746464627442
20
26.451534891863989
30
0
10
-43.203622730414267
20
26.396208256370556
30
0
10
-43.019180845530798
20
26.396208256370556
30
0
0
LINE
5
161
100
AcDbEntity
8
0
100
AcDbLine
10
-38.890588310232538
20
27.182220068593459
30
0
11
-39.014267752278407
21
27.188723270836203
31
0
0
LINE
5
162
100
AcDbEntity
8
0
100
AcDbLine
10
-38.109419308191129
20
26.163476635684123
30
0
11
-38.114301651515788
21
26.163476635684123
31
0
0
LINE
5
163
100
AcDbEntity
8
0
100
AcDbLine
10
-27.117582348127002
20
28.482441465809018
30
0
11
-26.74328253758517
21
28.482441465809018
31
0
0
SPLINE
5
164
100
AcDbEntity
8
0
100
AcDbSpline
70
0
71
3
72
8
73
4
74
0
42
0.000000001
43
0.0000000001
44
0.0000000001
40
6.5640000000000081
40
6.5640000000000081
40
6.5640000000000081
40
6.5640000000000081
40
7.5640000000000081
40
7.5640000000000081
40
7.5640000000000081
40
7.5640000000000081
10
-42.539090340753745
20
28.122857868244843
30
0
10
-42.691016214424607
20
28.209633120055535
30
0
10
-42.846697736806888
20
28.253040512532714
30
0
10
-43.006174441044323
20
28.253040512532714
30
0
0
LINE
5
165
100
AcDbEntity
8
0
100
AcDbLine
10
-29.223398300610736
20
28.497090472441663
30
0
11
-29.198986583985697
21
28.503593674684407
31
0
0
LINE
5
166
100
AcDbEntity
8
0
100
AcDbLine
10
-36.613860691512791
20
26.628900343912576
30
0
11
-36.607357489270179
21
26.628900343912576
31
0
0
LINE
5
167
100
AcDbEntity
8
0
100
AcDbLine
10
-36.368142432913018
20
28.370216752334851
30
0
11
-36.368142432913018
21
26.279051783140567
31
0
0
SPLINE
5
168
100
AcDbEntity
8
0
100
AcDbSpline
70
0
71
3
72
8
73
4
74
0
42
0.000000001
43
0.0000000001
44
0.0000000001
40
64.128300535754889
40
64.128300535754889
40
64.128300535754889
40
64.128300535754889
40
65.128300535754889
40
65.128300535754889
40
65.128300535754889
40
65.128300535754889
10
-29.198986583985697
20
28.503593674684407
30
0
10
-29.128459454496042
20
28.503593674684407
30
0
10
-29.087246151529595
20
28.458545656717121
30
0
10
-29.075267608796288
20
28.368528687071624
30
0
0
LINE
5
169
100
AcDbEntity
8
0
100
AcDbLine
10
-27.264032881307433
20
26.274139789957257
30
0
11
-27.264032881307433
21
28.365265226007132
31
0
0
SPLINE
5
170
100
AcDbEntity
8
0
100
AcDbSpline
70
0
71
3
72
8
73
4
74
0
42
0.000000001
43
0.0000000001
44
0.0000000001
40
130.07556298010701
40
130.07556298010701
40
130.07556298010701
40
130.07556298010701
40
131.07556298010701
40
131.07556298010701
40
131.07556298010701
40
131.07556298010701
10
-29.076928000858537
20
26.194353998065047
30
0
10
-29.109483545216168
20
26.169428350563049
30
0
10
-29.138243907719364
20
26.156955643526043
30
0
10
-29.163189321792391
20
26.156955643526043
30
0
0
SPLINE
5
171
100
AcDbEntity
8
0
100
AcDbSpline
70
0
71
3
72
8
73
4
74
0
42
0.000000001
43
0.0000000001
44
0.0000000001
40
4.5640000000000063
40
4.5640000000000063
40
4.5640000000000063
40
4.5640000000000063
40
5.5640000000000072
40
5.5640000000000072
40
5.5640000000000072
40
5.5640000000000072
10
-42.251051851145775
20
26.783514471397627
30
0
10
-42.136089467426515
20
26.949514144450948
30
0
10
-42.078548975850083
20
27.130121314334836
30
0
10
-42.078548975850083
20
27.325434813910618
30
0
0
LINE
5
172
100
AcDbEntity
8
0
100
AcDbLine
10
-34.900851991090491
20
25.928962070187985
30
0
11
-34.563693569648194
21
26.088577140431177
31
0
0
LINE
5
173
100
AcDbEntity
8
0
100
AcDbLine
10
-27.750610775068697
20
26.365255781014923
30
0
11
-28.025662626763204
21
27.079639465679193
31
0
0
LINE
5
174
100
AcDbEntity
8
0
100
AcDbLine
10
-29.501672103568648
20
27.182158792219976
30
0
11
-29.625351545613526
21
27.188661994462599
31
0
0
SPLINE
5
175
100
AcDbEntity
8
0
100
AcDbSpline
70
0
71
3
72
8
73
4
74
0
42
0.000000001
43
0.0000000001
44
0.0000000001
40
396.79200825101663
40
396.79200825101663
40
396.79200825101663
40
396.79200825101663
40
397.79200825101663
40
397.79200825101663
40
397.79200825101663
40
397.79200825101663
10
-37.992262834960144
20
26.274129906671
30
0
10
-37.992262834960144
20
26.213387230403796
30
0
10
-38.031321581561144
20
26.176483040169241
30
0
10
-38.109419308191129
20
26.163476635684123
30
0
0
LINE
5
176
100
AcDbEntity
8
0
100
AcDbLine
10
-30.434140378943756
20
28.497090472441663
30
0
11
-29.223398300610736
21
28.497090472441663
31
0
0
SPLINE
5
177
100
AcDbEntity
8
0
100
AcDbSpline
70
0
71
3
72
8
73
4
74
0
42
0.000000001
43
0.0000000001
44
0.0000000001
40
164.43527507501219
40
164.43527507501219
40
164.43527507501219
40
164.43527507501219
40
165.43527507501219
40
165.43527507501219
40
165.43527507501219
40
165.43527507501219
10
-28.491086334992275
20
28.418963095954147
30
0
10
-28.454201911329484
20
28.460176398921092
30
0
10
-28.419491810605901
20
28.480812700262597
30
0
10
-28.386936266247524
20
28.480812700262597
30
0
0
LINE
5
178
100
AcDbEntity
8
0
100
AcDbLine
10
-38.989856035652629
20
27.423075750440475
30
0
11
-38.90197385580106
21
27.429578952683219
31
0
0
LINE
5
179
100
AcDbEntity
8
0
100
AcDbLine
10
-35.062483251693884
20
28.476438357842248
30
0
11
-35.422017432827879
21
27.853830867746684
31
0
0
SPLINE
5
180
100
AcDbEntity
8
0
100
AcDbSpline
70
0
71
3
72
8
73
4
74
0
42
0.000000001
43
0.0000000001
44
0.0000000001
40
4
40
4
40
4
40
4
40
5
40
5
40
5
40
5
10
-41.839333919492923
20
27.31891184509573
30
0
10
-41.839333919492923
20
26.929431307129704
30
0
10
-42.015631976645039
20
26.605556022184011
30
0
10
-42.368228090947788
20
26.347384823119491
30
0
0
LINE
5
181
100
AcDbEntity
8
0
100
AcDbLine
10
-29.163189321792391
20
26.156955643526043
30
0
11
-29.176195726277633
21
26.156955643526043
31
0
0
SPLINE
5
182
100
AcDbEntity
8
0
100
AcDbSpline
70
0
71
3
72
8
73
4
74
0
42
0.000000001
43
0.0000000001
44
0.0000000001
40
398.03900825101664
40
398.03900825101664
40
398.03900825101664
40
398.03900825101664
40
399.03900825101664
40
399.03900825101664
40
399.03900825101664
40
399.03900825101664
10
-38.114301651515788
20
26.163476635684123
30
0
10
-38.17725818386586
20
26.163476635684123
30
0
10
-38.216316930466363
20
26.20417600777461
30
0
10
-38.231477891317546
20
26.28555498538331
30
0
0
SPLINE
5
183
100
AcDbEntity
8
0
100
AcDbSpline
70
0
71
3
72
8
73
4
74
0
42
0.000000001
43
0.0000000001
44
0.0000000001
40
2
40
2
40
2
40
2
40
3
40
3
40
3
40
3
10
-28.386936266247524
20
28.480812700262597
30
0
10
-28.312080257453708
20
28.480812700262597
30
0
10
-28.25675362196052
20
28.405403227448154
30
0
10
-28.220956359766962
20
28.254604048390807
30
0
0
LINE
5
184
100
AcDbEntity
8
0
100
AcDbLine
10
-38.12732782257379
20
28.485752366647006
30
0
11
-38.102916105947763
21
28.485752366647006
31
0
0
LINE
5
185
100
AcDbEntity
8
0
100
AcDbLine
10
-33.978365834658398
20
25.352726958394641
30
0
11
-33.629723034788469
21
25.352726958394641
31
0
0
SPLINE
5
186
100
AcDbEntity
8
0
100
AcDbSpline
70
0
71
3
72
8
73
4
74
0
42
0.000000001
43
0.0000000001
44
0.0000000001
40
271.46799866309465
40
271.46799866309465
40
271.46799866309465
40
271.46799866309465
40
272.46799866309465
40
272.46799866309465
40
272.46799866309465
40
272.46799866309465
10
-34.133177627865614
20
28.61405323326445
30
0
10
-34.291152072618459
20
28.555504646507611
30
0
10
-34.436416611469312
20
28.472030412249268
30
0
10
-34.563693569648194
20
28.366358317447645
30
0
0
SPLINE
5
187
100
AcDbEntity
8
0
100
AcDbSpline
70
0
71
3
72
8
73
4
74
0
42
0.000000001
43
0.0000000001
44
0.0000000001
40
134.70400000000001
40
134.70400000000001
40
134.70400000000001
40
134.70400000000001
40
135.70400000000001
40
135.70400000000001
40
135.70400000000001
40
135.70400000000001
10
-40.89872576969907
20
28.497153725472568
30
0
10
-40.679593550663284
20
28.497153725472568
30
0
10
-40.492443645392868
20
28.383752900954221
30
0
10
-40.337295820458834
20
28.15703031820658
30
0
0
LINE
5
188
100
AcDbEntity
8
0
100
AcDbLine
10
-33.629723034788469
20
29.092957743710819
30
0
11
-33.978365834658398
21
29.092957743710819
31
0
0
SPLINE
5
189
100
AcDbEntity
8
0
100
AcDbSpline
70
0
71
3
72
8
73
4
74
0
42
0.000000001
43
0.0000000001
44
0.0000000001
40
65.128300535754889
40
65.128300535754889
40
65.128300535754889
40
65.128300535754889
40
66.128300535754889
40
66.128300535754889
40
66.128300535754889
40
66.128300535754889
10
-29.075267608796288
20
28.368528687071624
30
0
10
-29.091555264261487
20
28.293672678277812
30
0
10
-29.13658351565687
20
28.256234790594647
30
0
10
-29.210372129553477
20
28.256234790594647
30
0
0
SPLINE
5
190
100
AcDbEntity
8
0
100
AcDbSpline
70
0
71
3
72
8
73
4
74
0
42
0.000000001
43
0.0000000001
44
0.0000000001
40
348.60210344995528
40
348.60210344995528
40
348.60210344995528
40
348.60210344995528
40
349.60210344995528
40
349.60210344995528
40
349.60210344995528
40
349.60210344995528
10
-35.078000010844633
20
27.476506771663001
30
0
10
-35.091658712211469
20
27.395681258075296
30
0
10
-35.099170009634491
20
27.312780254409596
30
0
10
-35.099170009634491
20
27.228060726104633
30
0
0
LINE
5
191
100
AcDbEntity
8
0
100
AcDbLine
10
-39.014267752278407
20
27.188723270836203
30
0
11
-39.730292062431921
21
27.188723270836203
31
0
0
SPLINE
5
192
100
AcDbEntity
8
0
100
AcDbSpline
70
0
71
3
72
8
73
4
74
0
42
0.000000001
43
0.0000000001
44
0.0000000001
40
466.51825408556101
40
466.51825408556101
40
466.51825408556101
40
466.51825408556101
40
467.51825408556101
40
467.51825408556101
40
467.51825408556101
40
467.51825408556101
10
-34.429241345773335
20
27.222842351052673
30
0
10
-34.429241345773335
20
27.663715976650842
30
0
10
-34.070576893814369
20
28.022360662037041
30
0
10
-33.629723034788469
20
28.022360662037041
30
0
0
SPLINE
5
193
100
AcDbEntity
8
0
100
AcDbSpline
70
0
71
3
72
8
73
4
74
0
42
0.000000001
43
0.0000000001
44
0.0000000001
40
407.39149227825419
40
407.39149227825419
40
407.39149227825419
40
407.39149227825419
40
408.39149227825419
40
408.39149227825419
40
408.39149227825419
40
408.39149227825419
10
-30.582231537614661
20
28.379914232639528
30
0
10
-30.570312294598402
20
28.458031725841156
30
0
10
-30.531253547997895
20
28.497090472441663
30
0
10
-30.465055297811908
20
28.497090472441663
30
0
0
LINE
5
194
100
AcDbEntity
8
0
100
AcDbLine
10
-41.325090731327883
20
27.379136637171989
30
0
11
-40.942666859625476
21
27.379136637171989
31
0
0
LINE
5
195
100
AcDbEntity
8
0
100
AcDbLine
10
-37.992262834960144
20
28.007322253933069
30
0
11
-37.992262834960144
21
26.274129906671
31
0
0
LINE
5
196
100
AcDbEntity
8
0
100
AcDbLine
10
-30.341375855767776
20
27.423014474066743
30
0
11
-29.600939828988736
21
27.423014474066743
31
0
0
SPLINE
5
197
100
AcDbEntity
8
0
100
AcDbSpline
70
0
71
3
72
8
73
4
74
0
42
0.000000001
43
0.0000000001
44
0.0000000001
40
465.51825408556101
40
465.51825408556101
40
465.51825408556101
40
465.51825408556101
40
466.51825408556101
40
466.51825408556101
40
466.51825408556101
40
466.51825408556101
10
-33.629723034788469
20
26.423324040068302
30
0
10
-34.070576893814369
20
26.423324040068302
30
0
10
-34.429241345773335
20
26.78196872545438
30
0
10
-34.429241345773335
20
27.222842351052673
30
0
0
LINE
5
198
100
AcDbEntity
8
0
100
AcDbLine
10
-28.741706703489225
20
27.079639465679193
30
0
11
-29.076928000858537
21
26.194353998065047
31
0
0
LINE
5
199
100
AcDbEntity
8
0
100
AcDbLine
10
-29.291731340589912
20
26.272471491266177
30
0
11
-29.291731340589912
21
26.278974693508921
31
0
0
LINE
5
200
100
AcDbEntity
8
0
100
AcDbLine
10
-36.607357489270179
20
26.628900343912576
30
0
11
-36.607357489270179
21
28.375099095659756
31
0
0
SPLINE
5
201
100
AcDbEntity
8
0
100
AcDbSpline
70
0
71
3
72
8
73
4
74
0
42
0.000000001
43
0.0000000001
44
0.0000000001
40
504.09876642742483
40
504.09876642742483
40
504.09876642742483
40
504.09876642742483
40
505.09876642742483
40
505.09876642742483
40
505.09876642742483
40
505.09876642742483
10
-31.852747730177889
20
27.688799756729981
30
0
10
-31.799239619325078
20
27.725783013253235
30
0
10
-31.783090329864514
20
27.797654269649854
30
0
10
-31.815606341078357
20
27.853989000324077
30
0
0
SPLINE
5
202
100
AcDbEntity
8
0
100
AcDbSpline
70
0
71
3
72
8
73
4
74
0
42
0.000000001
43
0.0000000001
44
0.0000000001
40
207.41645676899768
40
207.41645676899768
40
207.41645676899768
40
207.41645676899768
40
208.41645676899768
40
208.41645676899768
40
208.41645676899768
40
208.41645676899768
10
-29.51305764913667
20
27.429517676309363
30
0
10
-29.457731013643482
20
27.429517676309363
30
0
10
-29.420846589980446
20
27.388284606770394
30
0
10
-29.402404378149797
20
27.305838234264485
30
0
0
SPLINE
5
203
100
AcDbEntity
8
0
100
AcDbSpline
70
0
71
3
72
8
73
4
74
0
42
0.000000001
43
0.0000000001
44
0.0000000001
40
3.2350000000000136
40
3.2350000000000136
40
3.2350000000000136
40
3.2350000000000136
40
4.2350000000000136
40
4.2350000000000136
40
4.2350000000000136
40
4.2350000000000136
10
-36.631769205895452
20
26.653331827110129
30
0
10
-36.623111447286149
20
26.653331827110129
30
0
10
-36.618743034838197
20
26.647382088888133
30
0
10
-36.618743034838197
20
26.635403546155324
30
0
0
LINE
5
204
100
AcDbEntity
8
0
100
AcDbLine
10
-33.259277705819365
20
29.092957743710819
30
0
11
-33.629723034788469
21
29.092957743710819
31
0
0
LINE
5
205
100
AcDbEntity
8
0
100
AcDbLine
10
-29.625351545613526
20
27.188661994462599
30
0
11
-30.341375855767776
21
27.188661994462599
31
0
0
SPLINE
5
206
100
AcDbEntity
8
0
100
AcDbSpline
70
0
71
3
72
8
73
4
74
0
42
0.000000001
43
0.0000000001
44
0.0000000001
40
202.0154000486144
40
202.0154000486144
40
202.0154000486144
40
202.0154000486144
40
203.0154000486144
40
203.0154000486144
40
203.0154000486144
40
203.0154000486144
10
-36.368142432913018
20
26.279051783140567
30
0
10
-36.368142432913018
20
26.211746604914069
30
0
10
-36.411035894513731
20
26.171086765967747
30
0
10
-36.496704218282552
20
26.156953666868738
30
0
0
LINE
5
207
100
AcDbEntity
8
0
100
AcDbLine
10
-33.629723034788469
20
25.299060714962959
30
0
11
-33.629723034788469
21
25.352726958394641
31
0
0
SPLINE
5
208
100
AcDbEntity
8
0
100
AcDbSpline
70
0
71
3
72
8
73
4
74
0
42
0.000000001
43
0.0000000001
44
0.0000000001
40
298.20049227825422
40
298.20049227825422
40
298.20049227825422
40
298.20049227825422
40
299.20049227825422
40
299.20049227825422
40
299.20049227825422
40
299.20049227825422
10
-30.334872653524908
20
26.274141766614431
30
0
10
-30.353314865356545
20
26.196024273413052
30
0
10
-30.392373611957296
20
26.156965526812176
30
0
10
-30.452029126754642
20
26.156965526812176
30
0
0
SPLINE
5
209
100
AcDbEntity
8
0
100
AcDbSpline
70
0
71
3
72
8
73
4
74
0
42
0.000000001
43
0.0000000001
44
0.0000000001
40
2.2350000000000141
40
2.2350000000000141
40
2.2350000000000141
40
2.2350000000000141
40
3.2350000000000136
40
3.2350000000000136
40
3.2350000000000136
40
3.2350000000000136
10
-37.967851118335602
20
28.363693783519963
30
0
10
-37.907088675495764
20
28.29536074354079
30
0
10
-37.461747804588065
20
27.725193969402802
30
0
10
-36.631769205895452
20
26.653331827110129
30
0
0
SPLINE
5
210
100
AcDbEntity
8
0
100
AcDbSpline
70
0
71
3
72
8
73
4
74
0
42
0.000000001
43
0.0000000001
44
0.0000000001
40
1
40
1
40
1
40
1
40
2
40
2
40
2
40
2
10
-33.629723034788469
20
28.022360662037041
30
0
10
-33.188849409191043
20
28.022360662037041
30
0
10
-32.830184957232085
20
27.663715976650842
30
0
10
-32.830184957232085
20
27.222842351052673
30
0
0
LINE
5
211
100
AcDbEntity
8
0
100
AcDbLine
10
-30.452029126754642
20
26.156965526812176
30
0
11
-30.465055297811908
21
26.156965526812176
31
0
0
SPLINE
5
212
100
AcDbEntity
8
0
100
AcDbSpline
70
0
71
3
72
8
73
4
74
0
42
0.000000001
43
0.0000000001
44
0.0000000001
40
95.222400048614446
40
95.222400048614446
40
95.222400048614446
40
95.222400048614446
40
96.222400048614446
40
96.222400048614446
40
96.222400048614446
40
96.222400048614446
10
-36.478795703899891
20
28.485752366647006
30
0
10
-36.418072794205088
20
28.485752366647006
30
0
10
-36.381148837398257
20
28.447227317494857
30
0
10
-36.368142432913018
20
28.370216752334851
30
0
0
LINE
5
213
100
AcDbEntity
8
0
100
AcDbLine
10
-33.629723034788469
20
28.022360662037041
30
0
11
-33.629723034788469
21
29.092957743710819
31
0
0
SPLINE
5
214
100
AcDbEntity
8
0
100
AcDbSpline
70
0
71
3
72
8
73
4
74
0
42
0.000000001
43
0.0000000001
44
0.0000000001
40
503.51500825101664
40
503.51500825101664
40
503.51500825101664
40
503.51500825101664
40
504.51500825101664
40
504.51500825101664
40
504.51500825101664
40
504.51500825101664
10
-38.231477891317546
20
28.350687379034476
30
0
10
-38.221713204667488
20
28.440704348679844
30
0
10
-38.187022870515918
20
28.485752366647006
30
0
10
-38.12732782257379
20
28.485752366647006
30
0
0
LINE
5
215
100
AcDbEntity
8
0
100
AcDbLine
10
-31.376491940403032
20
25.299060714962959
30
0
11
-33.629723034788469
21
25.299060714962959
31
0
0
LINE
5
216
100
AcDbEntity
8
0
100
AcDbLine
10
-36.618743034838197
20
26.635403546155324
30
0
11
-36.613860691512791
21
26.628900343912576
31
0
0
SPLINE
5
217
100
AcDbEntity
8
0
100
AcDbSpline
70
0
71
3
72
8
73
4
74
0
42
0.000000001
43
0.0000000001
44
0.0000000001
40
163.43527507501219
40
163.43527507501219
40
163.43527507501219
40
163.43527507501219
40
164.43527507501219
40
164.43527507501219
40
164.43527507501219
40
164.43527507501219
10
-29.083431203100908
20
26.84204526823963
30
0
10
-28.719983240679113
20
27.789180340162233
30
0
10
-28.522554717881423
20
28.314813027209521
30
0
10
-28.491086334992275
20
28.418963095954147
30
0
0
LINE
5
218
100
AcDbEntity
8
0
100
AcDbLine
10
-31.376491940403032
20
29.146623987142384
30
0
11
-31.376491940403032
21
25.299060714962959
31
0
0
LINE
5
219
100
AcDbEntity
8
0
100
AcDbLine
10
-30.465055297811908
20
28.497090472441663
30
0
11
-30.465055297811908
21
28.503593674684407
31
0
0
SPLINE
5
220
100
AcDbEntity
8
0
100
AcDbSpline
70
0
71
3
72
8
73
4
74
0
42
0.000000001
43
0.0000000001
44
0.0000000001
40
1.2350000000000141
40
1.2350000000000141
40
1.2350000000000141
40
1.2350000000000141
40
2.2350000000000141
40
2.2350000000000141
40
2.2350000000000141
40
2.2350000000000141
10
-38.102916105947763
20
28.485752366647006
30
0
10
-38.050850954862014
20
28.485752366647006
30
0
10
-38.005822703466883
20
28.445072761129033
30
0
10
-37.967851118335602
20
28.363693783519963
30
0
0
LINE
5
221
100
AcDbEntity
8
0
100
AcDbLine
10
-33.629723034788469
20
25.352726958394641
30
0
11
-33.629723034788469
21
26.423324040068302
31
0
0
LINE
5
222
100
AcDbEntity
8
0
100
AcDbLine
10
-30.582231537614661
20
26.274141766614431
30
0
11
-30.582231537614661
21
28.379914232639528
31
0
0
SPLINE
5
223
100
AcDbEntity
8
0
100
AcDbSpline
70
0
71
3
72
8
73
4
74
0
42
0.000000001
43
0.0000000001
44
0.0000000001
40
93.316400048614483
40
93.316400048614483
40
93.316400048614483
40
93.316400048614483
40
94.316400048614483
40
94.316400048614483
40
94.316400048614483
40
94.316400048614483
10
-36.607357489270179
20
28.375099095659756
30
0
10
-36.593303456459246
20
28.448848176412319
30
0
10
-36.556379499652913
20
28.485752366647006
30
0
10
-36.496704218282552
20
28.485752366647006
30
0
0
SPLINE
5
224
100
AcDbEntity
8
0
100
AcDbSpline
70
0
71
3
72
8
73
4
74
0
42
0.000000001
43
0.0000000001
44
0.0000000001
40
2
40
2
40
2
40
2
40
3
40
3
40
3
40
3
10
-32.830184957232085
20
27.222842351052673
30
0
10
-32.830184957232085
20
26.78196872545438
30
0
10
-33.188849409191043
20
26.423324040068302
30
0
10
-33.629723034788469
20
26.423324040068302
30
0
0
LINE
5
225
100
AcDbEntity
8
0
100
AcDbLine
10
-30.341375855767776
20
28.256234790594647
30
0
11
-30.341375855767776
21
27.423014474066743
31
0
0
LINE
5
226
100
AcDbEntity
8
0
100
AcDbLine
10
-38.231477891317546
20
26.28555498538331
30
0
11
-38.231477891317546
21
28.350687379034476
31
0
0
SPLINE
5
227
100
AcDbEntity
8
0
100
AcDbSpline
70
0
71
3
72
8
73
4
74
0
42
0.000000001
43
0.0000000001
44
0.0000000001
40
386.23376741822449
40
386.23376741822449
40
386.23376741822449
40
386.23376741822449
40
387.23376741822449
40
387.23376741822449
40
387.23376741822449
40
387.23376741822449
10
-33.259277705819365
20
25.352726958394641
30
0
10
-33.194225916820152
20
25.352726958394641
30
0
10
-33.140065509084017
20
25.403032884557923
30
0
10
-33.134768067742996
20
25.46786724126369
30
0
0
LINE
5
228
100
AcDbEntity
8
0
100
AcDbLine
10
-36.496704218282552
20
28.485752366647006
30
0
11
-36.478795703899891
21
28.485752366647006
31
0
0
SPLINE
5
229
100
AcDbEntity
8
0
100
AcDbSpline
70
0
71
3
72
8
73
4
74
0
42
0.000000001
43
0.0000000001
44
0.0000000001
40
425.96591419459389
40
425.96591419459389
40
425.96591419459389
40
425.96591419459389
40
426.96591419459389
40
426.96591419459389
40
426.96591419459389
40
426.96591419459389
10
-32.336791549387762
20
25.928922537043576
30
0
10
-32.277985997192694
20
25.901091203433083
30
0
10
-32.207676299997722
20
25.923051865110153
30
0
10
-32.17516028878314
20
25.979386595784248
30
0
0
LINE
5
230
100
AcDbEntity
8
0
100
AcDbLine
10
-32.17516028878314
20
25.979386595784248
30
0
11
-31.815606341078357
21
26.60215221845721
31
0
0
SPLINE
5
231
100
AcDbEntity
8
0
100
AcDbSpline
70
0
71
3
72
8
73
4
74
0
42
0.000000001
43
0.0000000001
44
0.0000000001
40
203.0154000486144
40
203.0154000486144
40
203.0154000486144
40
203.0154000486144
40
204.0154000486144
40
204.0154000486144
40
204.0154000486144
40
204.0154000486144
10
-36.496704218282552
20
26.156953666868738
30
0
10
-36.543373095167425
20
26.156953666868738
30
0
10
-36.614967619553546
20
26.228567957827625
30
0
10
-36.711507558013935
20
26.371776773172879
30
0
0
LINE
5
232
100
AcDbEntity
8
0
100
AcDbLine
10
-33.629723034788469
20
25.352726958394641
30
0
11
-33.259277705819365
21
25.352726958394641
31
0
0
SPLINE
5
233
100
AcDbEntity
8
0
100
AcDbSpline
70
0
71
3
72
8
73
4
74
0
42
0.000000001
43
0.0000000001
44
0.0000000001
40
299.85949227825421
40
299.85949227825421
40
299.85949227825421
40
299.85949227825421
40
300.85949227825421
40
300.85949227825421
40
300.85949227825421
40
300.85949227825421
10
-30.465055297811908
20
26.156965526812176
30
0
10
-30.543172791013905
20
26.171019559622483
30
0
10
-30.582231537614661
20
26.210078306223114
30
0
10
-30.582231537614661
20
26.274141766614431
30
0
0
SPLINE
5
234
100
AcDbEntity
8
0
100
AcDbSpline
70
0
71
3
72
8
73
4
74
0
42
0.000000001
43
0.0000000001
44
0.0000000001
40
208.41645676899731
40
208.41645676899731
40
208.41645676899731
40
208.41645676899731
40
209.41645676899731
40
209.41645676899731
40
209.41645676899731
40
209.41645676899731
10
-38.791320584813441
20
27.305899510638461
30
0
10
-38.791320584813441
20
27.25164027004174
30
0
10
-38.824409826620304
20
27.21044673364743
30
0
10
-38.890588310232538
20
27.182220068593459
30
0
0
LINE
5
235
100
AcDbEntity
8
0
100
AcDbLine
10
-39.730292062431921
20
28.256296066968378
30
0
11
-39.730292062431921
21
27.423075750440475
31
0
0
LINE
5
236
100
AcDbEntity
8
0
100
AcDbLine
10
-41.56594641317453
20
26.280648922171284
30
0
11
-41.56594641317453
21
28.360448112370058
31
0
0
SPLINE
5
237
100
AcDbEntity
8
0
100
AcDbSpline
70
0
71
3
72
8
73
4
74
0
42
0.000000001
43
0.0000000001
44
0.0000000001
40
65.722999999999985
40
65.722999999999985
40
65.722999999999985
40
65.722999999999985
40
66.722999999999985
40
66.722999999999985
40
66.722999999999985
40
66.722999999999985
10
-40.491890181371872
20
27.82342987975499
30
0
10
-40.491890181371872
20
28.004590513659501
30
0
10
-40.584654704548591
20
28.13854857323053
30
0
10
-40.770163984329777
20
28.225383124757283
30
0
0
SPLINE
5
238
100
AcDbEntity
8
0
100
AcDbSpline
70
0
71
3
72
8
73
4
74
0
42
0.000000001
43
0.0000000001
44
0.0000000001
40
207.87300000000008
40
207.87300000000008
40
207.87300000000008
40
207.87300000000008
40
208.87300000000008
40
208.87300000000008
40
208.87300000000008
40
208.87300000000008
10
-41.448770173372758
20
26.156969480126531
30
0
10
-41.511706939150066
20
26.156969480126531
30
0
10
-41.550765685750576
20
26.198163016521082
30
0
10
-41.56594641317453
20
26.280648922171284
30
0
0
LINE
5
239
100
AcDbEntity
8
0
100
AcDbLine
10
-32.159623763060367
20
27.476546304807531
30
0
11
-31.852747730177889
21
27.688799756729981
31
0
0
SPLINE
5
240
100
AcDbEntity
8
0
100
AcDbSpline
70
0
71
3
72
8
73
4
74
0
42
0.000000001
43
0.0000000001
44
0.0000000001
40
3.5640000000000067
40
3.5640000000000067
40
3.5640000000000067
40
3.5640000000000067
40
4.5640000000000063
40
4.5640000000000063
40
4.5640000000000063
40
4.5640000000000063
10
-42.988265926661896
20
26.396208256370556
30
0
10
-42.697519416666992
20
26.396208256370556
30
0
10
-42.451801158067461
20
26.525303739188821
30
0
10
-42.251051851145775
20
26.783514471397627
30
0
0
LINE
5
241
100
AcDbEntity
8
0
100
AcDbLine
10
-31.852747730177889
20
26.767361228623447
30
0
11
-32.159623763060367
21
26.979594913973379
31
0
0
SPLINE
5
242
100
AcDbEntity
8
0
100
AcDbSpline
70
0
71
3
72
8
73
4
74
0
42
0.000000001
43
0.0000000001
44
0.0000000001
40
5
40
5
40
5
40
5
40
6
40
6
40
6
40
6
10
-42.368228090947788
20
26.347384823119491
30
0
10
-42.567850703256198
20
26.220463663239315
30
0
10
-42.776704304765204
20
26.156973433441255
30
0
10
-42.994769128904771
20
26.156973433441255
30
0
0
LINE
5
243
100
AcDbEntity
8
0
100
AcDbLine
10
-39.853971504476796
20
28.497151748815391
30
0
11
-39.853971504476796
21
28.503654951058014
31
0
0
LINE
5
244
100
AcDbEntity
8
0
100
AcDbLine
10
-33.629723034788469
20
26.423324040068302
30
0
11
-33.629723034788469
21
28.022360662037041
31
0
0
SPLINE
5
245
100
AcDbEntity
8
0
100
AcDbSpline
70
0
71
3
72
8
73
4
74
0
42
0.000000001
43
0.0000000001
44
0.0000000001
40
0
40
0
40
0
40
0
40
1
40
1
40
1
40
1
10
-43.93538123201273
20
27.312408642852862
30
0
10
-43.93538123201273
20
27.015158930615076
30
0
10
-43.804111426256256
20
26.76503272642244
30
0
10
-43.541571814742298
20
26.562207929423508
30
0
0
LINE
5
246
100
AcDbEntity
8
0
100
AcDbLine
10
-33.629723034788469
20
29.146623987142384
30
0
11
-31.376491940403032
21
29.146623987142384
31
0
0
SPLINE
5
247
100
AcDbEntity
8
0
100
AcDbSpline
70
0
71
3
72
8
73
4
74
0
42
0.000000001
43
0.0000000001
44
0.0000000001
40
7.2349999999999985
40
7.2349999999999985
40
7.2349999999999985
40
7.2349999999999985
40
8.2349999999999994
40
8.2349999999999994
40
8.2349999999999994
40
8.2349999999999994
10
-43.019180845530798
20
26.156973433441255
30
0
10
-43.42058062651234
20
26.156973433441255
30
0
10
-43.748231326741319
20
26.343589641263563
30
0
10
-44.002093413073951
20
26.71676275719188
30
0
0
LINE
5
248
100
AcDbEntity
8
0
100
AcDbLine
10
-32.336791549387762
20
28.52717914859317
30
0
11
-32.673930204256806
21
28.367583844922123
31
0
0
LINE
5
249
100
AcDbEntity
8
0
100
AcDbLine
10
-41.325090731327883
20
28.256298043625559
30
0
11
-41.325090731327883
21
27.379136637171989
31
0
0
LINE
5
250
100
AcDbEntity
8
0
100
AcDbLine
10
-33.134768067742996
20
25.46786724126369
30
0
11
-33.104446146040367
21
25.839478797990971
31
0
0
LINE
5
251
100
AcDbEntity
8
0
100
AcDbLine
10
-38.574876619591592
20
26.15696750346935
30
0
11
-39.853971504476796
21
26.15696750346935
31
0
0
LINE
5
252
100
AcDbEntity
8
0
100
AcDbLine
10
-40.89872576969907
20
27.138280955324973
30
0
11
-41.325090731327883
21
27.138280955324973
31
0
0
SPLINE
5
253
100
AcDbEntity
8
0
100
AcDbSpline
70
0
71
3
72
8
73
4
74
0
42
0.000000001
43
0.0000000001
44
0.0000000001
40
463.34591056622651
40
463.34591056622651
40
463.34591056622651
40
463.34591056622651
40
464.34591056622651
40
464.34591056622651
40
464.34591056622651
40
464.34591056622651
10
-31.815606341078357
20
26.60215221845721
30
0
10
-31.783090337616674
20
26.658486935699916
30
0
10
-31.799239611623907
20
26.730358171257031
30
0
10
-31.852747730177889
20
26.767361228623447
30
0
0
SPLINE
5
254
100
AcDbEntity
8
0
100
AcDbSpline
70
0
71
3
72
8
73
4
74
0
42
0.000000001
43
0.0000000001
44
0.0000000001
40
63.722999999999978
40
63.722999999999978
40
63.722999999999978
40
63.722999999999978
40
64.722999999999985
40
64.722999999999985
40
64.722999999999985
40
64.722999999999985
10
-40.942666859625476
20
27.379136637171989
30
0
10
-40.736541045074688
20
27.379136637171989
30
0
10
-40.594419391198912
20
27.477850898570587
30
0
10
-40.51630189799765
20
27.675299187940666
30
0
0
SPLINE
5
255
100
AcDbEntity
8
0
100
AcDbSpline
70
0
71
3
72
8
73
4
74
0
42
0.000000001
43
0.0000000001
44
0.0000000001
40
541.47789677711864
40
541.47789677711864
40
541.47789677711864
40
541.47789677711864
40
542.47789677711864
40
542.47789677711864
40
542.47789677711864
40
542.47789677711864
10
-32.17516028878314
20
28.476734856424887
30
0
10
-32.207676299997722
20
28.533069587098613
30
0
10
-32.277985997192694
20
28.555010482203663
30
0
10
-32.336791549387762
20
28.52717914859317
30
0
0
SPLINE
5
256
100
AcDbEntity
8
0
100
AcDbSpline
70
0
71
3
72
8
73
4
74
0
42
0.000000001
43
0.0000000001
44
0.0000000001
40
206.54400000000007
40
206.54400000000007
40
206.54400000000007
40
206.54400000000007
40
207.54400000000007
40
207.54400000000007
40
207.54400000000007
40
207.54400000000007
10
-41.325090731327883
20
26.267622751114025
30
0
10
-41.325090731327883
20
26.207927703171396
30
0
10
-41.364149477928393
20
26.171082812653637
30
0
10
-41.442266971129897
20
26.156969480126531
30
0
0
LINE
5
257
100
AcDbEntity
8
0
100
AcDbLine
10
-39.730292062431921
20
27.188723270836203
30
0
11
-39.730292062431921
21
26.397803418744346
31
0
0
SPLINE
5
258
100
AcDbEntity
8
0
100
AcDbSpline
70
0
71
3
72
8
73
4
74
0
42
0.000000001
43
0.0000000001
44
0.0000000001
40
483.22205408125632
40
483.22205408125632
40
483.22205408125632
40
483.22205408125632
40
484.22205408125632
40
484.22205408125632
40
484.22205408125632
40
484.22205408125632
10
-32.159623763060367
20
26.979594913973379
30
0
10
-32.145965061694774
20
27.060440194133847
30
0
10
-32.138453764270508
20
27.143360964371688
30
0
10
-32.138453764270508
20
27.228080492676654
30
0
0
LINE
5
259
100
AcDbEntity
8
0
100
AcDbLine
10
-43.019180845530798
20
26.396208256370556
30
0
11
-42.988265926661896
21
26.396208256370556
31
0
0
LINE
5
260
100
AcDbEntity
8
0
100
AcDbLine
10
-31.815606341078357
20
27.853989000324077
30
0
11
-32.17516028878314
21
28.476734856424887
31
0
0
SPLINE
5
261
100
AcDbEntity
8
0
100
AcDbSpline
70
0
71
3
72
8
73
4
74
0
42
0.000000001
43
0.0000000001
44
0.0000000001
40
139.92700000000011
40
139.92700000000011
40
139.92700000000011
40
139.92700000000011
40
140.92700000000011
40
140.92700000000011
40
140.92700000000011
40
140.92700000000011
10
-40.529328069054912
20
27.268463599612474
30
0
10
-40.655181834038245
20
27.181668581230134
30
0
10
-40.77830781206238
20
27.138280955324973
30
0
10
-40.89872576969907
20
27.138280955324973
30
0
0
LINE
5
262
100
AcDbEntity
8
0
100
AcDbLine
10
-33.629723034788469
20
29.092957743710819
30
0
11
-33.629723034788469
21
29.146623987142384
31
0
0
LINE
5
263
100
AcDbEntity
8
0
100
AcDbLine
10
-40.251034499524977
20
27.84295925305512
30
0
11
-40.251034499524977
21
27.79901816312946
31
0
0
LINE
5
264
100
AcDbEntity
8
0
100
AcDbLine
10
-41.46179634443002
20
28.497153725472568
30
0
11
-40.89872576969907
21
28.497153725472568
31
0
0
SPLINE
5
265
100
AcDbEntity
8
0
100
AcDbSpline
70
0
71
3
72
8
73
4
74
0
42
0.000000001
43
0.0000000001
44
0.0000000001
40
406.09624753087138
40
406.09624753087138
40
406.09624753087138
40
406.09624753087138
40
407.09624753087138
40
407.09624753087138
40
407.09624753087138
40
407.09624753087138
10
-33.104446146040367
20
25.839478797990971
30
0
10
-32.946471701286789
20
25.898027384747692
30
0
10
-32.801207162436675
20
25.98282597934098
30
0
10
-32.673930204256806
20
26.088478307570458
30
0
0
SPLINE
5
266
100
AcDbEntity
8
0
100
AcDbSpline
70
0
71
3
72
8
73
4
74
0
42
0.000000001
43
0.0000000001
44
0.0000000001
40
484.22205408125632
40
484.22205408125632
40
484.22205408125632
40
484.22205408125632
40
485.22205408125632
40
485.22205408125632
40
485.22205408125632
40
485.22205408125632
10
-32.138453764270508
20
27.228080492676654
30
0
10
-32.138453764270508
20
27.312800020981616
30
0
10
-32.145965061694774
20
27.395720791219457
30
0
10
-32.159623763060367
20
27.476546304807531
30
0
0
SPLINE
5
267
100
AcDbEntity
8
0
100
AcDbSpline
70
0
71
3
72
8
73
4
74
0
42
0.000000001
43
0.0000000001
44
0.0000000001
40
580.95675541123148
40
580.95675541123148
40
580.95675541123148
40
580.95675541123148
40
581.95675541123148
40
581.95675541123148
40
581.95675541123148
40
581.95675541123148
10
-33.134768067742996
20
28.983055602465875
30
0
10
-33.140065509084017
20
29.047889959171393
30
0
10
-33.194225916820152
20
29.092957743710819
30
0
10
-33.259277705819365
20
29.092957743710819
30
0
0
LINE
5
268
100
AcDbEntity
8
0
100
AcDbLine
10
-38.599288336217619
20
28.256296066968378
30
0
11
-39.730292062431921
21
28.256296066968378
31
0
0
LINE
5
269
100
AcDbEntity
8
0
100
AcDbLine
10
-38.612314507275627
20
28.497151748815391
30
0
11
-38.587902790649842
21
28.503654951058014
31
0
0
LINE
5
270
100
AcDbEntity
8
0
100
AcDbLine
10
-39.853971504476796
20
28.503654951058014
30
0
11
-39.823056585607908
21
28.497151748815391
31
0
0
SPLINE
5
271
100
AcDbEntity
8
0
100
AcDbSpline
70
0
71
3
72
8
73
4
74
0
42
0.000000001
43
0.0000000001
44
0.0000000001
40
3
40
3
40
3
40
3
40
4
40
4
40
4
40
4
10
-28.220956359766962
20
28.254604048390807
30
0
10
-27.728412914525912
20
26.972227912527128
30
0
10
-27.479947102394906
20
26.3158986503155
30
0
10
-27.475598456518728
20
26.285497662323806
30
0
0
SPLINE
5
272
100
AcDbEntity
8
0
100
AcDbSpline
70
0
71
3
72
8
73
4
74
0
42
0.000000001
43
0.0000000001
44
0.0000000001
40
207.41645676899731
40
207.41645676899731
40
207.41645676899731
40
207.41645676899731
40
208.41645676899731
40
208.41645676899731
40
208.41645676899731
40
208.41645676899731
10
-38.90197385580106
20
27.429578952683219
30
0
10
-38.846647220307375
20
27.429578952683219
30
0
10
-38.809762796644584
20
27.388345883144005
30
0
10
-38.791320584813441
20
27.305899510638461
30
0
0
SPLINE
5
273
100
AcDbEntity
8
0
100
AcDbSpline
70
0
71
3
72
8
73
4
74
0
42
0.000000001
43
0.0000000001
44
0.0000000001
40
417.3291003911641
40
417.3291003911641
40
417.3291003911641
40
417.3291003911641
40
418.3291003911641
40
418.3291003911641
40
418.3291003911641
40
418.3291003911641
10
-39.853971504476796
20
26.15696750346935
30
0
10
-39.932088997678058
20
26.171080835996339
30
0
10
-39.971147744278561
20
26.21013958259709
30
0
10
-39.971147744278561
20
26.274123976699343
30
0
0
LINE
5
274
100
AcDbEntity
8
0
100
AcDbLine
10
-39.730292062431921
20
27.423075750440475
30
0
11
-38.989856035652629
21
27.423075750440475
31
0
0
LINE
5
275
100
AcDbEntity
8
0
100
AcDbLine
10
-39.823056585607908
20
28.497151748815391
30
0
11
-38.612314507275627
21
28.497151748815391
31
0
0
SPLINE
5
276
100
AcDbEntity
8
0
100
AcDbSpline
70
0
71
3
72
8
73
4
74
0
42
0.000000001
43
0.0000000001
44
0.0000000001
40
208.41645676899768
40
208.41645676899768
40
208.41645676899768
40
208.41645676899768
40
209.41645676899768
40
209.41645676899768
40
209.41645676899768
40
209.41645676899768
10
-29.402404378149797
20
27.305838234264485
30
0
10
-29.402404378149797
20
27.251578993668133
30
0
10
-29.435493619956162
20
27.210385457273333
30
0
10
-29.501672103568648
20
27.182158792219976
30
0
0
SPLINE
5
277
100
AcDbEntity
8
0
100
AcDbSpline
70
0
71
3
72
8
73
4
74
0
42
0.000000001
43
0.0000000001
44
0.0000000001
40
65.128300535754718
40
65.128300535754718
40
65.128300535754718
40
65.128300535754718
40
66.128300535754718
40
66.128300535754718
40
66.128300535754718
40
66.128300535754718
10
-38.46418381546043
20
28.368589963445729
30
0
10
-38.48047147092538
20
28.293733954651668
30
0
10
-38.525499722320767
20
28.256296066968378
30
0
10
-38.599288336217619
20
28.256296066968378
30
0
0
SPLINE
5
278
100
AcDbEntity
8
0
100
AcDbSpline
70
0
71
3
72
8
73
4
74
0
42
0.000000001
43
0.0000000001
44
0.0000000001
40
131.733562980107
40
131.733562980107
40
131.733562980107
40
131.733562980107
40
132.733562980107
40
132.733562980107
40
132.733562980107
40
132.733562980107
10
-29.176195726277633
20
26.156955643526043
30
0
10
-29.253245824582173
20
26.171029442908615
30
0
10
-29.291731340589912
20
26.209534725488624
30
0
10
-29.291731340589912
20
26.272471491266177
30
0
0
SPLINE
5
279
100
AcDbEntity
8
0
100
AcDbSpline
70
0
71
3
72
8
73
4
74
0
42
0.000000001
43
0.0000000001
44
0.0000000001
40
64.128300535754718
40
64.128300535754718
40
64.128300535754718
40
64.128300535754718
40
65.128300535754718
40
65.128300535754718
40
65.128300535754718
40
65.128300535754718
10
-38.587902790649842
20
28.503654951058014
30
0
10
-38.517375661160187
20
28.503654951058014
30
0
10
-38.476162358192745
20
28.458606933091101
30
0
10
-38.46418381546043
20
28.368589963445729
30
0
0
LINE
5
280
100
AcDbEntity
8
0
100
AcDbLine
10
-30.341375855767776
20
26.311540121152941
30
0
11
-30.334872653524908
21
26.274141766614431
31
0
0
LINE
5
281
100
AcDbEntity
8
0
100
AcDbLine
10
-39.971147744278561
20
26.274123976699343
30
0
11
-39.971147744278561
21
28.37997550901326
31
0
0
LINE
5
282
100
AcDbEntity
8
0
100
AcDbLine
10
-29.600939828988736
20
27.423014474066743
30
0
11
-29.51305764913667
21
27.429517676309363
31
0
0
LINE
5
283
100
AcDbEntity
8
0
100
AcDbLine
10
-39.730292062431921
20
26.397803418744346
30
0
11
-38.569994276266925
21
26.397803418744346
31
0
0
LINE
5
284
100
AcDbEntity
8
0
100
AcDbLine
10
-33.104446146040367
20
28.616484521640775
30
0
11
-33.134768067742996
21
28.983055602465875
31
0
0
LINE
5
285
100
AcDbEntity
8
0
100
AcDbLine
10
-29.210372129553477
20
28.256234790594647
30
0
11
-30.341375855767776
21
28.256234790594647
31
0
0
LINE
5
286
100
AcDbEntity
8
0
100
AcDbLine
10
-29.291731340589912
20
26.278974693508921
30
0
11
-29.083431203100908
21
26.84204526823963
31
0
0
LINE
5
287
100
AcDbEntity
8
0
100
AcDbLine
10
-32.673930204256806
20
26.088478307570458
30
0
11
-32.336791549387762
21
25.928922537043576
31
0
0
LINE
5
288
100
AcDbEntity
8
0
100
AcDbLine
10
-28.025662626763204
20
27.079639465679193
30
0
11
-28.741706703489225
21
27.079639465679193
31
0
0
SPLINE
5
289
100
AcDbEntity
8
0
100
AcDbSpline
70
0
71
3
72
8
73
4
74
0
42
0.000000001
43
0.0000000001
44
0.0000000001
40
561.34841908043609
40
561.34841908043609
40
561.34841908043609
40
561.34841908043609
40
562.34841908043609
40
562.34841908043609
40
562.34841908043609
40
562.34841908043609
10
-32.673930204256806
20
28.367583844922123
30
0
10
-32.801207162436675
20
28.473236173151481
30
0
10
-32.946471701286789
20
28.557935934884053
30
0
10
-33.104446146040367
20
28.616484521640775
30
0
0
LINE
5
290
100
AcDbEntity
8
0
100
AcDbLine
10
-30.341375855767776
20
27.188661994462599
30
0
11
-30.341375855767776
21
26.311540121152941
31
0
0
LINE
5
291
100
AcDbEntity
8
0
100
AcDbLine
10
-27.024817824951018
20
26.396158839940011
30
0
11
-26.705864416474149
21
26.396158839940011
31
0
0
SPLINE
5
292
100
AcDbEntity
8
0
100
AcDbSpline
70
0
71
3
72
8
73
4
74
0
42
0.000000001
43
0.0000000001
44
0.0000000001
40
66.722999999999985
40
66.722999999999985
40
66.722999999999985
40
66.722999999999985
40
67.722999999999985
40
67.722999999999985
40
67.722999999999985
40
67.722999999999985
10
-40.770163984329777
20
28.225383124757283
30
0
10
-40.815725933173397
20
28.245960126382602
30
0
10
-40.868878245728624
20
28.256298043625559
30
0
10
-40.929640688568213
20
28.256298043625559
30
0
0
SPLINE
5
293
100
AcDbEntity
8
0
100
AcDbSpline
70
0
71
3
72
8
73
4
74
0
42
0.000000001
43
0.0000000001
44
0.0000000001
40
426.72955380430017
40
426.72955380430017
40
426.72955380430017
40
426.72955380430017
40
427.72955380430017
40
427.72955380430017
40
427.72955380430017
40
427.72955380430017
10
-34.563693569648194
20
26.088577140431177
30
0
10
-34.436416611469312
20
25.982905045629799
30
0
10
-34.291152072618459
20
25.898225050469122
30
0
10
-34.133177627865614
20
25.839676463712401
30
0
0
SPLINE
5
294
100
AcDbEntity
8
0
100
AcDbSpline
70
0
71
3
72
8
73
4
74
0
42
0.000000001
43
0.0000000001
44
0.0000000001
40
7.5640000000000081
40
7.5640000000000081
40
7.5640000000000081
40
7.5640000000000081
40
8.5640000000000089
40
8.5640000000000089
40
8.5640000000000089
40
8.5640000000000089
10
-43.006174441044323
20
28.253040512532714
30
0
10
-43.313188839932657
20
28.253040512532714
30
0
10
-43.56760439028578
20
28.119596383837774
30
0
10
-43.769401325531931
20
27.852708126447645
30
0
0
LINE
5
295
100
AcDbEntity
8
0
100
AcDbLine
10
-34.133177627865614
20
25.839676463712401
30
0
11
-34.102855706162252
21
25.46786724126369
31
0
0
LINE
5
296
100
AcDbEntity
8
0
100
AcDbLine
10
-41.325090731327883
20
27.138280955324973
30
0
11
-41.325090731327883
21
26.267622751114025
31
0
0
LINE
5
297
100
AcDbEntity
8
0
100
AcDbLine
10
-42.994769128904771
20
26.156973433441255
30
0
11
-43.019180845530798
21
26.156973433441255
31
0
0
SPLINE
5
298
100
AcDbEntity
8
0
100
AcDbSpline
70
0
71
3
72
8
73
4
74
0
42
0.000000001
43
0.0000000001
44
0.0000000001
40
446.60200081045167
40
446.60200081045167
40
446.60200081045167
40
446.60200081045167
40
447.60200081045167
40
447.60200081045167
40
447.60200081045167
40
447.60200081045167
10
-34.102855706162252
20
25.46786724126369
30
0
10
-34.097558264821473
20
25.403032884557923
30
0
10
-34.043397857086333
20
25.352726958394641
30
0
10
-33.978365834658398
20
25.352726958394641
30
0
0
SPLINE
5
299
100
AcDbEntity
8
0
100
AcDbSpline
70
0
71
3
72
8
73
4
74
0
42
0.000000001
43
0.0000000001
44
0.0000000001
40
406.85769978833235
40
406.85769978833235
40
406.85769978833235
40
406.85769978833235
40
407.85769978833235
40
407.85769978833235
40
407.85769978833235
40
407.85769978833235
10
-35.062483251693884
20
25.979406362356514
30
0
10
-35.029947473908265
20
25.923071631682419
30
0
10
-34.959637776712555
20
25.901130736577493
30
0
10
-34.900851991090491
20
25.928962070187985
30
0
0
SPLINE
5
300
100
AcDbEntity
8
0
100
AcDbSpline
70
0
71
3
72
8
73
4
74
0
42
0.000000001
43
0.0000000001
44
0.0000000001
40
8.5640000000000089
40
8.5640000000000089
40
8.5640000000000089
40
8.5640000000000089
40
9.5640000000000089
40
9.5640000000000089
40
9.5640000000000089
40
9.5640000000000089
10
-43.769401325531931
20
27.852708126447645
30
0
10
-43.880054596518804
20
27.693211655637313
30
0
10
-43.93538123201273
20
27.513118416629769
30
0
10
-43.93538123201273
20
27.312408642852862
30
0
0
LINE
5
301
100
AcDbEntity
8
0
100
AcDbLine
10
-35.078000010844633
20
26.979594913973379
30
0
11
-35.384895810300122
21
26.767361228623447
31
0
0
SPLINE
5
302
100
AcDbEntity
8
0
100
AcDbSpline
70
0
71
3
72
8
73
4
74
0
42
0.000000001
43
0.0000000001
44
0.0000000001
40
351.61910039116407
40
351.61910039116407
40
351.61910039116407
40
351.61910039116407
40
352.61910039116407
40
352.61910039116407
40
352.61910039116407
40
352.61910039116407
10
-38.46418381546043
20
26.267620774456599
30
0
10
-38.485927044843805
20
26.193871693704281
30
0
10
-38.522771935361313
20
26.15696750346935
30
0
10
-38.574876619591592
20
26.15696750346935
30
0
0
SPLINE
5
303
100
AcDbEntity
8
0
100
AcDbSpline
70
0
71
3
72
8
73
4
74
0
42
0.000000001
43
0.0000000001
44
0.0000000001
40
350.61910039116407
40
350.61910039116407
40
350.61910039116407
40
350.61910039116407
40
351.61910039116407
40
351.61910039116407
40
351.61910039116407
40
351.61910039116407
10
-38.569994276266925
20
26.397803418744346
30
0
10
-38.51249331783454
20
26.397803418744346
30
0
10
-38.477209986518183
20
26.354396026266919
30
0
10
-38.46418381546043
20
26.267620774456599
30
0
0
LINE
5
304
100
AcDbEntity
8
0
100
AcDbLine
10
-34.563693569648194
20
28.366358317447645
30
0
11
-34.900851991090491
21
28.526586151428383
31
0
0
LINE
5
305
100
AcDbEntity
8
0
100
AcDbLine
10
-27.591134070831007
20
26.156955643526043
30
0
11
-27.597637273073129
21
26.156955643526043
31
0
0
SPLINE
5
306
100
AcDbEntity
8
0
100
AcDbSpline
70
0
71
3
72
8
73
4
74
0
42
0.000000001
43
0.0000000001
44
0.0000000001
40
27.60290016484127
40
27.60290016484127
40
27.60290016484127
40
27.60290016484127
40
28.60290016484127
40
28.60290016484127
40
28.60290016484127
40
28.60290016484127
10
-26.344590776990323
20
26.205786983405691
30
0
10
-26.437908764187547
20
26.173231439047683
30
0
10
-26.521422531589678
20
26.156963550155123
30
0
10
-26.595191378915501
20
26.156963550155123
30
0
0
LINE
5
307
100
AcDbEntity
8
0
100
AcDbLine
10
-26.663544185466197
20
28.236703440637218
30
0
11
-26.792105970835991
21
28.243226409452106
31
0
0
LINE
5
308
100
AcDbEntity
8
0
100
AcDbLine
10
-27.024817824951018
20
28.243226409452106
30
0
11
-27.024817824951018
21
27.554816000614899
31
0
0
LINE
5
309
100
AcDbEntity
8
0
100
AcDbLine
10
-27.024817824951018
20
27.315600944257618
30
0
11
-27.024817824951018
21
26.396158839940011
31
0
0
LINE
5
310
100
AcDbEntity
8
0
100
AcDbLine
10
-27.146876408077443
20
28.487323809134296
30
0
11
-27.117582348127002
21
28.482441465809018
31
0
0
SPLINE
5
311
100
AcDbEntity
8
0
100
AcDbSpline
70
0
71
3
72
8
73
4
74
0
42
0.000000001
43
0.0000000001
44
0.0000000001
40
6.2329999999999472
40
6.2329999999999472
40
6.2329999999999472
40
6.2329999999999472
40
7.2329999999999472
40
7.2329999999999472
40
7.2329999999999472
40
7.2329999999999472
10
-27.597637273073129
20
26.156955643526043
30
0
10
-27.669251564032258
20
26.156955643526043
30
0
10
-27.720269086793561
20
26.226356078402304
30
0
10
-27.750610775068697
20
26.365255781014923
30
0
0
LINE
5
312
100
AcDbEntity
8
0
100
AcDbLine
10
-26.141172982826472
20
27.904723861103218
30
0
11
-26.141172982826472
21
27.886835113292822
31
0
0
LINE
5
313
100
AcDbEntity
8
0
100
AcDbLine
10
-27.475598456518728
20
26.285497662323806
30
0
11
-27.475598456518728
21
26.267628681085679
31
0
0
SPLINE
5
314
100
AcDbEntity
8
0
100
AcDbSpline
70
0
71
3
72
8
73
4
74
0
42
0.000000001
43
0.0000000001
44
0.0000000001
40
4.9039999999999955
40
4.9039999999999955
40
4.9039999999999955
40
4.9039999999999955
40
5.9039999999999964
40
5.9039999999999964
40
5.9039999999999964
40
5.9039999999999964
10
-27.475598456518728
20
26.267628681085679
30
0
10
-27.475598456518728
20
26.206826705101804
30
0
10
-27.514123505670007
20
26.169981814583796
30
0
10
-27.591134070831007
20
26.156955643526043
30
0
0
SPLINE
5
315
100
AcDbEntity
8
0
100
AcDbSpline
70
0
71
3
72
8
73
4
74
0
42
0.000000001
43
0.0000000001
44
0.0000000001
40
63.650999999999954
40
63.650999999999954
40
63.650999999999954
40
63.650999999999954
40
64.650999999999954
40
64.650999999999954
40
64.650999999999954
40
64.650999999999954
10
-26.233937506002455
20
26.597936008614003
30
0
10
-26.180785193447477
20
26.672792017408064
30
0
10
-26.154179387311963
20
26.756879015403463
30
0
10
-26.154179387311963
20
26.85021676917345
30
0
0
SPLINE
5
316
100
AcDbEntity
8
0
100
AcDbSpline
70
0
71
3
72
8
73
4
74
0
42
0.000000001
43
0.0000000001
44
0.0000000001
40
9.2349999999999994
40
9.2349999999999994
40
9.2349999999999994
40
9.2349999999999994
40
10.234999999999999
40
10.234999999999999
40
10.234999999999999
40
10.234999999999999
10
-44.174596288369642
20
27.330317157235523
30
0
10
-44.174596288369642
20
27.702422878267001
30
0
10
-44.010790704826803
20
28.015980012541757
30
0
10
-43.683140004597078
20
28.270949026915503
30
0
0
SPLINE
5
317
100
AcDbEntity
8
0
100
AcDbSpline
70
0
71
3
72
8
73
4
74
0
42
0.000000001
43
0.0000000001
44
0.0000000001
40
10.234999999999999
40
10.234999999999999
40
10.234999999999999
40
10.234999999999999
40
11.234999999999999
40
11.234999999999999
40
11.234999999999999
40
11.234999999999999
10
-43.683140004597078
20
28.270949026915503
30
0
10
-43.470510987804161
20
28.418486721565039
30
0
10
-43.244836033381461
20
28.492255568890119
30
0
10
-43.006174441044323
20
28.492255568890119
30
0
0
LINE
5
318
100
AcDbEntity
8
0
100
AcDbLine
10
-27.024817824951018
20
27.554816000614899
30
0
11
-26.7986091730791
21
27.554816000614899
31
0
0
SPLINE
5
319
100
AcDbEntity
8
0
100
AcDbSpline
70
0
71
3
72
8
73
4
74
0
42
0.000000001
43
0.0000000001
44
0.0000000001
40
163.3039001648412
40
163.3039001648412
40
163.3039001648412
40
163.3039001648412
40
164.3039001648412
40
164.3039001648412
40
164.3039001648412
40
164.3039001648412
10
-27.264032881307433
20
28.365265226007132
30
0
10
-27.252133404863933
20
28.443382719208511
30
0
10
-27.213074658262435
20
28.482441465809018
30
0
10
-27.146876408077443
20
28.482441465809018
30
0
0
SPLINE
5
320
100
AcDbEntity
8
0
100
AcDbSpline
70
0
71
3
72
8
73
4
74
0
42
0.000000001
43
0.0000000001
44
0.0000000001
40
8.2349999999999994
40
8.2349999999999994
40
8.2349999999999994
40
8.2349999999999994
40
9.2349999999999994
40
9.2349999999999994
40
9.2349999999999994
40
9.2349999999999994
10
-44.002093413073951
20
26.71676275719188
30
0
10
-44.117115096510005
20
26.905533521380505
30
0
10
-44.174596288369642
20
27.11003847701371
30
0
10
-44.174596288369642
20
27.330317157235523
30
0
0
SPLINE
5
321
100
AcDbEntity
8
0
100
AcDbSpline
70
0
71
3
72
8
73
4
74
0
42
0.000000001
43
0.0000000001
44
0.0000000001
40
65.224999999999966
40
65.224999999999966
40
65.224999999999966
40
65.224999999999966
40
66.224999999999966
40
66.224999999999966
40
66.224999999999966
40
66.224999999999966
10
-26.154179387311963
20
26.861562781596572
30
0
10
-26.154179387311963
20
27.081841461818389
30
0
10
-26.274617111521664
20
27.229359389895784
30
0
10
-26.515453026795544
20
27.304215398689845
30
0
0
LINE
5
322
100
AcDbEntity
8
0
100
AcDbLine
10
-26.74328253758517
20
28.482441465809018
30
0
11
-26.71887082095914
21
28.487323809134296
31
0
0
SPLINE
5
323
100
AcDbEntity
8
0
100
AcDbSpline
70
0
71
3
72
8
73
4
74
0
42
0.000000001
43
0.0000000001
44
0.0000000001
40
60.949999999999932
40
60.949999999999932
40
60.949999999999932
40
60.949999999999932
40
61.949999999999932
40
61.949999999999932
40
61.949999999999932
40
61.949999999999932
10
-26.386891241426248
20
27.911246829918106
30
0
10
-26.386891241426248
20
28.069616606114916
30
0
10
-26.479102300581733
20
28.178115320736214
30
0
10
-26.663544185466197
20
28.236703440637218
30
0
0
LINE
5
324
100
AcDbEntity
8
0
100
AcDbLine
10
-27.146876408077443
20
28.482441465809018
30
0
11
-27.146876408077443
21
28.487323809134296
31
0
0
SPLINE
5
325
100
AcDbEntity
8
0
100
AcDbSpline
70
0
71
3
72
8
73
4
74
0
42
0.000000001
43
0.0000000001
44
0.0000000001
40
314.09100000000012
40
314.09100000000012
40
314.09100000000012
40
314.09100000000012
40
315.09100000000012
40
315.09100000000012
40
315.09100000000012
40
315.09100000000012
10
-41.56594641317453
20
28.360448112370058
30
0
10
-41.556181726524457
20
28.451572010056804
30
0
10
-41.521471625801126
20
28.497153725472568
30
0
10
-41.46179634443002
20
28.497153725472568
30
0
0
LINE
5
326
100
AcDbEntity
8
0
100
AcDbLine
10
-35.422017432827879
20
26.60215221845721
30
0
11
-35.062483251693884
21
25.979406362356514
31
0
0
LINE
5
327
100
AcDbEntity
8
0
100
AcDbLine
10
-26.154179387311963
20
26.85021676917345
30
0
11
-26.154179387311963
21
26.861562781596572
31
0
0
SPLINE
5
328
100
AcDbEntity
8
0
100
AcDbSpline
70
0
71
3
72
8
73
4
74
0
42
0.000000001
43
0.0000000001
44
0.0000000001
40
58.043999999999983
40
58.043999999999983
40
58.043999999999983
40
58.043999999999983
40
59.043999999999983
40
59.043999999999983
40
59.043999999999983
40
59.043999999999983
10
-26.7986091730791
20
27.554816000614899
30
0
10
-26.597899399301454
20
27.554816000614899
30
0
10
-26.468823683055454
20
27.626430291573413
30
0
10
-26.41130295805203
20
27.769658873490563
30
0
0
SPLINE
5
329
100
AcDbEntity
8
0
100
AcDbSpline
70
0
71
3
72
8
73
4
74
0
42
0.000000001
43
0.0000000001
44
0.0000000001
40
21.69790016484118
40
21.69790016484118
40
21.69790016484118
40
21.69790016484118
40
22.69790016484118
40
22.69790016484118
40
22.69790016484118
40
22.69790016484118
10
-26.71887082095914
20
28.487323809134296
30
0
10
-26.532294146281735
20
28.487323809134296
30
0
10
-26.372797675471531
20
28.399441629282602
30
0
10
-26.240440708245568
20
28.223697036151609
30
0
0
SPLINE
5
330
100
AcDbEntity
8
0
100
AcDbSpline
70
0
71
3
72
8
73
4
74
0
42
0.000000001
43
0.0000000001
44
0.0000000001
40
2
40
2
40
2
40
2
40
3
40
3
40
3
40
3
10
-43.006174441044323
20
28.492255568890119
30
0
10
-42.612325490630347
20
28.492255568890119
30
0
10
-42.283073698055667
20
28.310007773516258
30
0
10
-42.018339997031731
20
27.945472649624246
30
0
0
LINE
5
331
100
AcDbEntity
8
0
100
AcDbLine
10
-26.515453026795544
20
27.304215398689845
30
0
11
-26.687955902091236
21
27.315600944257618
31
0
0
SPLINE
5
332
100
AcDbEntity
8
0
100
AcDbSpline
70
0
71
3
72
8
73
4
74
0
42
0.000000001
43
0.0000000001
44
0.0000000001
40
369.4790694402833
40
369.4790694402833
40
369.4790694402833
40
369.4790694402833
40
370.4790694402833
40
370.4790694402833
40
370.4790694402833
40
370.4790694402833
10
-35.384895810300122
20
26.767361228623447
30
0
10
-35.438384154581406
20
26.730358205528173
30
0
10
-35.454533444041473
20
26.658486949131181
30
0
10
-35.422017432827879
20
26.60215221845721
30
0
0
SPLINE
5
333
100
AcDbEntity
8
0
100
AcDbSpline
70
0
71
3
72
8
73
4
74
0
42
0.000000001
43
0.0000000001
44
0.0000000001
40
62.650999999999954
40
62.650999999999954
40
62.650999999999954
40
62.650999999999954
40
63.650999999999954
40
63.650999999999954
40
63.650999999999954
40
63.650999999999954
10
-26.705864416474149
20
26.396158839940011
30
0
10
-26.471511936870375
20
26.396158839940011
30
0
10
-26.314229322142424
20
26.463404718450079
30
0
10
-26.233937506002455
20
26.597936008614003
30
0
0
LINE
5
334
100
AcDbEntity
8
0
100
AcDbLine
10
-26.595191378915501
20
26.156963550155123
30
0
11
-27.146876408077443
21
26.156963550155123
31
0
0
LINE
5
335
100
AcDbEntity
8
0
100
AcDbLine
10
-26.792105970835991
20
28.243226409452106
30
0
11
-27.024817824951018
21
28.243226409452106
31
0
0
SPLINE
5
336
100
AcDbEntity
8
0
100
AcDbSpline
70
0
71
3
72
8
73
4
74
0
42
0.000000001
43
0.0000000001
44
0.0000000001
40
22.69790016484118
40
22.69790016484118
40
22.69790016484118
40
22.69790016484118
40
23.69790016484118
40
23.69790016484118
40
23.69790016484118
40
23.69790016484118
10
-26.240440708245568
20
28.223697036151609
30
0
10
-26.174262224632589
20
28.126050169649975
30
0
10
-26.141172982826472
20
28.019686244822854
30
0
10
-26.141172982826472
20
27.904723861103218
30
0
0
SPLINE
5
337
100
AcDbEntity
8
0
100
AcDbSpline
70
0
71
3
72
8
73
4
74
0
42
0.000000001
43
0.0000000001
44
0.0000000001
40
328.72570623014667
40
328.72570623014667
40
328.72570623014667
40
328.72570623014667
40
329.72570623014667
40
329.72570623014667
40
329.72570623014667
40
329.72570623014667
10
-35.422017432827879
20
27.853830867746684
30
0
10
-35.454533444041473
20
27.797496137072585
30
0
10
-35.438384154581406
20
27.725723713536681
30
0
10
-35.384895810300122
20
27.688720690441158
30
0
0
SPLINE
5
338
100
AcDbEntity
8
0
100
AcDbSpline
70
0
71
3
72
8
73
4
74
0
42
0.000000001
43
0.0000000001
44
0.0000000001
40
26.60290016484127
40
26.60290016484127
40
26.60290016484127
40
26.60290016484127
40
27.60290016484127
40
27.60290016484127
40
27.60290016484127
40
27.60290016484127
10
-25.908461128711689
20
26.85021676917345
30
0
10
-25.908461128711689
20
26.570302340725561
30
0
10
-26.053844266995405
20
26.355499000993813
30
0
10
-26.344590776990323
20
26.205786983405691
30
0
0
SPLINE
5
339
100
AcDbEntity
8
0
100
AcDbSpline
70
0
71
3
72
8
73
4
74
0
42
0.000000001
43
0.0000000001
44
0.0000000001
40
59.043999999999983
40
59.043999999999983
40
59.043999999999983
40
59.043999999999983
40
60.043999999999983
40
60.043999999999983
40
60.043999999999983
40
60.043999999999983
10
-26.41130295805203
20
27.769658873490563
30
0
10
-26.395035069158848
20
27.810872176457512
30
0
10
-26.386891241426248
20
27.852065712852067
30
0
10
-26.386891241426248
20
27.893338315535445
30
0
0
SPLINE
5
340
100
AcDbEntity
8
0
100
AcDbSpline
70
0
71
3
72
8
73
4
74
0
42
0.000000001
43
0.0000000001
44
0.0000000001
40
349.60210344995528
40
349.60210344995528
40
349.60210344995528
40
349.60210344995528
40
350.60210344995528
40
350.60210344995528
40
350.60210344995528
40
350.60210344995528
10
-35.099170009634491
20
27.228060726104633
30
0
10
-35.099170009634491
20
27.143341197799668
30
0
10
-35.091658712211469
20
27.060420427561827
30
0
10
-35.078000010844633
20
26.979594913973379
30
0
0
LINE
5
341
100
AcDbEntity
8
0
100
AcDbLine
10
-26.386891241426248
20
27.893338315535445
30
0
11
-26.386891241426248
21
27.911246829918106
31
0
0
SPLINE
5
342
100
AcDbEntity
8
0
100
AcDbSpline
70
0
71
3
72
8
73
4
74
0
42
0.000000001
43
0.0000000001
44
0.0000000001
40
25.60290016484127
40
25.60290016484127
40
25.60290016484127
40
25.60290016484127
40
26.60290016484127
40
26.60290016484127
40
26.60290016484127
40
26.60290016484127
10
-26.30715288930654
20
27.488103819553192
30
0
10
-26.041351793385633
20
27.341633519800741
30
0
10
-25.908461128711689
20
27.12900450300733
30
0
10
-25.908461128711689
20
26.85021676917345
30
0
0
SPLINE
5
343
100
AcDbEntity
8
0
100
AcDbSpline
70
0
71
3
72
8
73
4
74
0
42
0.000000001
43
0.0000000001
44
0.0000000001
40
3
40
3
40
3
40
3
40
4
40
4
40
4
40
4
10
-42.018339997031731
20
27.945472649624246
30
0
10
-41.899028967435797
20
27.738220140460186
30
0
10
-41.839333919492923
20
27.529406072094844
30
0
10
-41.839333919492923
20
27.31891184509573
30
0
0
SPLINE
5
344
100
AcDbEntity
8
0
100
AcDbSpline
70
0
71
3
72
8
73
4
74
0
42
0.000000001
43
0.0000000001
44
0.0000000001
40
56.51290016484122
40
56.51290016484122
40
56.51290016484122
40
56.51290016484122
40
57.51290016484122
40
57.51290016484122
40
57.51290016484122
40
57.51290016484122
10
-27.146876408077443
20
26.156963550155123
30
0
10
-27.22497413470693
20
26.171017582965309
30
0
10
-27.264032881307433
20
26.210076329565936
30
0
10
-27.264032881307433
20
26.274139789957257
30
0
0
SPLINE
5
345
100
AcDbEntity
8
0
100
AcDbSpline
70
0
71
3
72
8
73
4
74
0
42
0.000000001
43
0.0000000001
44
0.0000000001
40
24.60290016484127
40
24.60290016484127
40
24.60290016484127
40
24.60290016484127
40
25.60290016484127
40
25.60290016484127
40
25.60290016484127
40
25.60290016484127
10
-26.141172982826472
20
27.886835113292822
30
0
10
-26.141172982826472
20
27.746868015782994
30
0
10
-26.196499618319663
20
27.613957584536529
30
0
10
-26.30715288930654
20
27.488103819553192
30
0
0
LINE
5
346
100
AcDbEntity
8
0
100
AcDbLine
10
-26.687955902091236
20
27.315600944257618
30
0
11
-27.024817824951018
21
27.315600944257618
31
0
0
ENDSEC
0
SECTION
2
OBJECTS
0
DICTIONARY
5
C
100
AcDbDictionary
3
ACAD_GROUP
350
D
3
ACAD_MLINESTYLE
350
17
0
DICTIONARY
5
D
100
AcDbDictionary
0
DICTIONARY
5
1A
330
C
100
AcDbDictionary
0
DICTIONARY
5
17
100
AcDbDictionary
0
ENDSEC
0
EOF
